<svg width="98" height="18" viewBox="0 0 98 18" fill="none" xmlns="http://www.w3.org/2000/svg">
<g clip-path="url(#clip0_2_1345)">
<path d="M0 -6.39977e-05H7.16C8.28163 -0.0524792 9.38912 0.267461 10.31 0.909936C10.7302 1.26001 11.0648 1.70146 11.2884 2.20059C11.512 2.69972 11.6186 3.24334 11.6 3.78994C11.6488 4.37769 11.5095 4.96575 11.2021 5.46909C10.8947 5.97243 10.4352 6.36496 9.89 6.58994V6.66994C10.6146 6.91125 11.2403 7.38293 11.6719 8.01305C12.1034 8.64316 12.3169 9.39712 12.28 10.1599C12.3078 10.83 12.1785 11.4973 11.9025 12.1085C11.6264 12.7197 11.2112 13.2578 10.69 13.6799C9.70032 14.3241 8.52819 14.6294 7.35 14.5499H0V-6.39977e-05ZM6.44 5.67994C6.61511 5.69949 6.79238 5.68025 6.95921 5.62357C7.12605 5.56688 7.27835 5.47416 7.40531 5.35197C7.53226 5.22979 7.63075 5.08115 7.69378 4.91661C7.75681 4.75207 7.78284 4.57567 7.77 4.39994C7.77742 4.22331 7.74604 4.0472 7.67808 3.884C7.61011 3.7208 7.50722 3.57447 7.37662 3.45532C7.24603 3.33616 7.09091 3.24707 6.92218 3.19431C6.75345 3.14155 6.57521 3.1264 6.4 3.14994H3.94V5.64994H6.44V5.67994ZM6.78 11.3299C6.98024 11.3459 7.18158 11.3189 7.37053 11.2507C7.55948 11.1825 7.73169 11.0747 7.87561 10.9346C8.01953 10.7945 8.13185 10.6252 8.20504 10.4381C8.27823 10.2511 8.31061 10.0505 8.3 9.84994C8.31401 9.64851 8.28396 9.44645 8.21195 9.25781C8.13994 9.06917 8.0277 8.89849 7.88303 8.75763C7.73837 8.61677 7.56475 8.50912 7.37426 8.44217C7.18377 8.37521 6.98098 8.35057 6.78 8.36994H4V11.3699H6.8L6.78 11.3299Z" fill="white"/>
<path d="M12.92 0H16.67V14.59H12.92V0Z" fill="white"/>
<path d="M17.43 9.39989C17.376 8.67064 17.4785 7.93827 17.7307 7.25187C17.9828 6.56548 18.3788 5.94093 18.8921 5.42008C19.4053 4.89924 20.024 4.49415 20.7067 4.23196C21.3893 3.96977 22.1201 3.85655 22.85 3.89989C23.5771 3.86082 24.3042 3.9773 24.9828 4.24155C25.6613 4.5058 26.2756 4.91174 26.7848 5.43227C27.294 5.95281 27.6863 6.57597 27.9355 7.26015C28.1847 7.94434 28.2851 8.67381 28.23 9.39989C28.2869 10.1259 28.1877 10.8557 27.939 11.5402C27.6903 12.2246 27.2979 12.8479 26.7882 13.368C26.2785 13.8882 25.6633 14.2931 24.984 14.5556C24.3047 14.8181 23.5771 14.9321 22.85 14.8899C22.121 14.9331 21.3911 14.8201 20.7092 14.5585C20.0274 14.2969 19.4092 13.8927 18.8961 13.373C18.383 12.8532 17.9868 12.2299 17.7339 11.5448C17.4811 10.8596 17.3775 10.1283 17.43 9.39989V9.39989ZM24.48 9.39989C24.48 7.57989 23.91 6.39989 22.77 6.39989C21.63 6.39989 21.11 7.53989 21.11 9.39989C21.11 11.2599 21.64 12.3999 22.77 12.3999C23.9 12.3999 24.48 11.2199 24.48 9.39989Z" fill="white"/>
<path d="M28.65 9.39989C28.596 8.67064 28.6985 7.93827 28.9506 7.25187C29.2028 6.56548 29.5988 5.94093 30.1121 5.42008C30.6253 4.89924 31.244 4.49415 31.9266 4.23196C32.6093 3.96977 33.34 3.85655 34.07 3.89989C37.36 3.89989 39.41 6.09989 39.41 9.39989C39.4657 10.1282 39.3646 10.86 39.1136 11.5459C38.8625 12.2319 38.4673 12.856 37.9546 13.3763C37.4419 13.8966 36.8237 14.3009 36.1415 14.562C35.4593 14.8231 34.7291 14.9349 34 14.8899C33.2762 14.9244 32.5534 14.8049 31.8793 14.5393C31.2051 14.2736 30.5951 13.868 30.0894 13.349C29.5837 12.8301 29.1939 12.2097 28.9457 11.529C28.6976 10.8482 28.5968 10.1225 28.65 9.39989V9.39989ZM35.65 9.39989C35.65 7.57989 35.09 6.39989 33.95 6.39989C32.81 6.39989 32.28 7.53989 32.28 9.39989C32.28 11.2599 32.81 12.3999 33.95 12.3999C35.09 12.3999 35.69 11.2199 35.69 9.39989H35.65Z" fill="white"/>
<path d="M40.17 4.17003H43.65V5.72003H43.73C44.0139 5.13739 44.4631 4.65125 45.0215 4.32225C45.5799 3.99325 46.2228 3.83597 46.87 3.87003C47.465 3.83966 48.0547 3.99454 48.558 4.31333C49.0613 4.63213 49.4533 5.09914 49.68 5.65003H49.75C50.0663 5.07491 50.5401 4.60195 51.1158 4.28666C51.6915 3.97137 52.3451 3.82684 53 3.87003C55.43 3.87003 56.45 5.65003 56.45 8.03003V14.55H52.78V8.68003C52.78 7.62003 52.44 6.93003 51.53 6.93003C50.62 6.93003 50.17 7.77003 50.17 8.93003V14.58H46.53V8.68003C46.53 7.62003 46.19 6.93003 45.28 6.93003C44.37 6.93003 43.92 7.77003 43.92 8.93003V14.58H40.17V4.17003Z" fill="white"/>
<path d="M61 13.19V14.55H57.48V0H61.12V5.23H61.2C61.5419 4.76315 61.9961 4.3901 62.5205 4.14538C63.0449 3.90066 63.6225 3.79219 64.2 3.83C66.82 3.83 68.33 6.18 68.33 9.32C68.33 12.85 66.7 14.89 63.98 14.89C63.3733 14.9175 62.7713 14.7724 62.2438 14.4715C61.7163 14.1706 61.285 13.7262 61 13.19V13.19ZM64.52 9.28C64.52 7.62 63.92 6.52 62.82 6.52C61.72 6.52 61 7.62 61 9.28C61 10.94 61.72 12.05 62.82 12.05C63.92 12.05 64.53 11 64.53 9.28H64.52Z" fill="white"/>
<path d="M68.7 9.35996C68.649 8.64207 68.7497 7.9215 68.9955 7.24506C69.2412 6.56862 69.6265 5.95145 70.1264 5.43367C70.6262 4.91589 71.2295 4.50908 71.8968 4.23967C72.5642 3.97027 73.2808 3.8443 74 3.86996C74.6602 3.84762 75.3182 3.95631 75.9361 4.18974C76.554 4.42317 77.1195 4.77672 77.6 5.22996C78.2222 5.91762 78.6953 6.72663 78.9896 7.60606C79.2839 8.48549 79.393 9.41632 79.31 10.34H72.31C72.46 11.63 73.07 12.34 74.16 12.34C74.4773 12.3585 74.7917 12.27 75.0528 12.0887C75.3138 11.9074 75.5065 11.6438 75.6 11.34H79.13C78.52 13.73 76.66 14.9 74.05 14.9C73.3246 14.924 72.6023 14.7957 71.9296 14.5232C71.2569 14.2507 70.6488 13.8402 70.1447 13.3181C69.6405 12.796 69.2514 12.174 69.0026 11.4922C68.7537 10.8105 68.6507 10.0841 68.7 9.35996V9.35996ZM72.34 8.25996H75.67C75.6 6.99996 74.91 6.36996 74 6.36996C73 6.32996 72.45 7.04996 72.34 8.25996Z" fill="white"/>
<path d="M83.44 5.99999H83.52C83.7611 5.40376 84.1764 4.89402 84.7115 4.53726C85.2467 4.1805 85.8769 3.99327 86.52 3.99999C86.7294 3.98443 86.9393 4.02228 87.13 4.10999V7.23999H87C84.84 6.85999 83.59 7.87999 83.59 10.24V14.6H80V4.16999H83.49L83.44 5.99999Z" fill="white"/>
<path d="M87.49 14.5899H91C91.1166 14.8776 91.3248 15.1188 91.5924 15.2761C91.86 15.4334 92.172 15.498 92.48 15.4599C93.65 15.4599 94.07 14.7399 94.07 13.6399V12.8799H94C93.7036 13.2572 93.3233 13.5603 92.8894 13.7651C92.4554 13.9699 91.9798 14.0708 91.5 14.0599C89.27 14.0599 87.29 12.3899 87.29 9.12992C87.29 6.12992 88.89 3.82992 91.29 3.82992C91.8448 3.79402 92.3989 3.90892 92.8936 4.16244C93.3883 4.41596 93.8052 4.79865 94.1 5.26992H94.17V4.12992H97.66V13.1299C97.6993 13.8153 97.5911 14.5012 97.3426 15.1412C97.0942 15.7812 96.7114 16.3605 96.22 16.8399C95.1833 17.6546 93.8869 18.0666 92.57 17.9999C89.77 17.9999 87.84 16.8999 87.49 14.5899ZM94.24 8.99992C94.24 7.70992 93.63 6.64992 92.57 6.64992C91.51 6.64992 90.9 7.53992 90.9 8.99992C90.9 10.4599 91.55 11.3899 92.57 11.3899C93.59 11.3899 94.24 10.3399 94.24 8.99992Z" fill="white"/>
</g>
<defs>
<clipPath id="clip0_2_1345">
<rect width="97.69" height="18" fill="white"/>
</clipPath>
</defs>
</svg>
