<svg width="18" height="19" viewBox="0 0 18 19" fill="none" xmlns="http://www.w3.org/2000/svg">
<g clip-path="url(#clip0_2_169)">
<path fill-rule="evenodd" clip-rule="evenodd" d="M9.61438 18.8301H0.993462C0.444627 18.8301 0 18.3852 0 17.8366V1.82353C0 1.27477 0.444697 0.830078 0.993462 0.830078H17.0066C17.5552 0.830078 18 1.27477 18 1.82353V17.8366C18 18.3852 17.5552 18.8301 17.0066 18.8301H12.4197V11.8595H14.7594L15.1098 9.14292H12.4197V7.40857C12.4197 6.62206 12.6381 6.08608 13.766 6.08608L15.2045 6.08545V3.65574C14.9557 3.62263 14.1018 3.54867 13.1083 3.54867C11.0343 3.54867 9.61438 4.81465 9.61438 7.13953V9.14292H7.26867V11.8595H9.61438V18.8301Z" fill="white"/>
</g>
<defs>
<clipPath id="clip0_2_169">
<rect width="18" height="18" fill="white" transform="translate(0 0.830078)"/>
</clipPath>
</defs>
</svg>
