<svg width="115" height="17" viewBox="0 0 115 17" fill="none" xmlns="http://www.w3.org/2000/svg">
<g clip-path="url(#clip0_2_1326)">
<path d="M100.31 2.09005C100.31 0.980052 100.67 0.600052 101.25 0.600052C101.83 0.600052 102.25 0.810052 102.85 2.09005L106.14 9.56005V14.2601C106.14 15.3801 105.7 15.6901 104.4 15.8601V16.1601H110.49V15.8601C109.2 15.6901 108.76 15.3801 108.76 14.2601V9.56005L111.93 2.37005C112.07 1.88414 112.347 1.44903 112.729 1.11721C113.11 0.785403 113.579 0.571063 114.08 0.500052V0.210052H109.64V0.510052C111.16 0.680052 111.64 1.09005 111.27 2.08005L108.45 8.45005L105.58 1.91005C105.2 1.03005 105.43 0.730052 107.07 0.510052V0.210052H97.51V0.510052C99.03 0.720052 99.51 0.990052 99.51 2.11005V10.8501L92.5 0.210052H89.05V0.510052C90.18 0.680052 90.52 0.990052 90.52 2.11005V14.2801C90.52 15.3901 90.2 15.7701 89.81 15.7701C89.42 15.7701 89.26 15.6001 88.81 14.2801L83.57 0.140052H83.27L78.27 13.6801C78.1354 14.2148 77.8561 14.7021 77.4627 15.0884C77.0693 15.4747 76.5771 15.7452 76.04 15.8701V16.1701H80.61V15.8701C79.02 15.7001 78.54 15.1001 78.89 14.1101L80 11.0001H84.71L85.77 13.9201C86.24 15.2101 85.97 15.6001 84.59 15.8501V16.1501H93.3V15.8501C91.78 15.6401 91.3 15.3701 91.3 14.2601V3.39005L99.75 16.2301H100.26V2.09005H100.31ZM39.31 8.18005C39.31 3.23005 41.65 0.630052 44.4 0.630052C44.9873 0.570172 45.5807 0.62775 46.1455 0.799433C46.7103 0.971115 47.2354 1.25347 47.69 1.63005C48.2339 2.25919 48.6333 2.99991 48.86 3.80005H49.16V0.480052C47.6993 0.17508 46.2121 0.0143081 44.72 5.21354e-05C40.58 5.21354e-05 36.31 2.68005 36.31 8.20005C36.2713 9.28222 36.4549 10.3608 36.8495 11.3692C37.2441 12.3777 37.8412 13.2944 38.6041 14.0629C39.367 14.8314 40.2794 15.4353 41.2849 15.8373C42.2903 16.2393 43.3676 16.4308 44.45 16.4001C46.027 16.4001 47.5949 16.1607 49.1 15.6901L49.57 12.5601L49.29 12.5001C48.9621 13.1309 48.5481 13.7131 48.06 14.2301C47.5711 14.7166 46.9906 15.1015 46.3521 15.3624C45.7136 15.6233 45.0297 15.755 44.34 15.7501C41.72 15.7401 39.29 13.2101 39.29 8.18005H39.31ZM73.58 8.66005C73.1513 8.65392 72.7235 8.61716 72.3 8.55005V0.820052H73.58C75.68 0.820052 76.58 1.95005 76.58 4.73005C76.58 7.51005 75.66 8.66005 73.56 8.66005H73.58ZM23.89 0.210052V4.00005H24.19C24.66 1.58005 25.61 0.820052 27.25 0.820052H28V14.2801C28 15.3901 27.56 15.7001 26.26 15.8701V16.1701H32.36V15.8701C31.06 15.7001 30.62 15.3901 30.62 14.2801V0.820052H31.4C33.07 0.820052 34 1.60005 34.49 4.00005H34.79V0.210052H23.89ZM19.05 16.3801C21.66 16.3801 24.45 14.8701 24.45 11.7701C24.4471 10.8827 24.1979 10.0136 23.7299 9.25962C23.262 8.50565 22.5939 7.89649 21.8 7.50005L18.8 5.84005C17.19 5.00005 16.72 4.14005 16.72 3.00005C16.72 1.86005 17.72 0.640052 19.51 0.640052C19.8905 0.612816 20.2726 0.664487 20.6323 0.791826C20.9919 0.919164 21.3214 1.11942 21.6 1.38005C22.2701 2.12841 22.7503 3.02704 23 4.00005H23.3V0.480052C22.1393 0.148944 20.9369 -0.0127263 19.73 5.21354e-05C19.1363 -0.0471363 18.5393 0.0321802 17.9786 0.232762C17.4178 0.433344 16.9059 0.750626 16.4768 1.16365C16.0478 1.57667 15.7112 2.07604 15.4894 2.62876C15.2675 3.18148 15.1655 3.77498 15.19 4.37005C15.1972 5.23889 15.4376 6.08985 15.8862 6.83397C16.3348 7.57809 16.975 8.18804 17.74 8.60005L20.51 10.1601C22.08 11.0401 22.61 11.8801 22.61 13.1601C22.61 14.6801 21.08 15.7301 19.35 15.7301C18.8528 15.7538 18.3558 15.6776 17.8886 15.5058C17.4214 15.334 16.9934 15.0702 16.63 14.7301C16.0993 14.1721 15.6877 13.5121 15.42 12.7901H17.25V12.4901C16.76 12.3901 16.43 12.3001 16.02 11.3001L12.46 2.81005H12.16L8.69 11.0601C8.22 12.1701 7.92 12.3601 7.37 12.4601V12.7601H10.5V12.4601C9.37 12.3601 9.07 11.8101 9.35 11.1101L9.9 9.79005H13.05L13.73 11.4301C14.03 12.1501 13.58 12.3401 12.45 12.4301V12.7301H14.93V15.7901C16.2714 16.1673 17.6567 16.3657 19.05 16.3801V16.3801ZM58.31 16.2101L62.93 3.43005L63.29 14.3201C63.29 15.3801 62.89 15.7001 61.61 15.8701V16.1701H74.22V15.8701C72.71 15.6601 72.22 15.3901 72.22 14.2801V9.17005C72.6812 9.22868 73.1452 9.26206 73.61 9.27005C76.67 9.27005 79.3 8.15005 79.3 4.73005C79.3 1.31005 76.72 0.200052 73.65 0.200052H68.2V0.500052C69.32 0.670052 69.66 0.980052 69.66 2.09005V14.2601C69.66 15.3801 69.22 15.8601 67.92 15.8601C66.56 15.8601 65.99 15.3801 65.92 14.3001L65.49 2.13005C65.45 1.00005 65.83 0.670052 67 0.500052V0.210052H63.27L59.16 11.7001L55.08 0.210052H51.08V0.510052C52.27 0.680052 52.65 1.05005 52.61 2.14005L52.17 13.8301C52.1899 14.3257 52.0181 14.81 51.6904 15.1824C51.3627 15.5548 50.9042 15.7868 50.41 15.8301V16.1301H54.65V15.8301C54.4088 15.81 54.174 15.7421 53.9594 15.6303C53.7447 15.5184 53.5546 15.3649 53.4 15.1787C53.2454 14.9924 53.1295 14.7772 53.0591 14.5457C52.9887 14.3141 52.9652 14.0708 52.99 13.8301L53.35 3.22005L58.03 16.2201H58.33L58.31 16.2101ZM46 12.8501C47.2206 12.8101 48.3802 12.3073 49.2438 11.4438C50.1073 10.5803 50.61 9.42062 50.65 8.20005C50.6792 7.5706 50.5804 6.94176 50.3596 6.35157C50.1389 5.76138 49.8007 5.2221 49.3656 4.76633C48.9304 4.31056 48.4074 3.94777 47.828 3.6999C47.2487 3.45204 46.6251 3.32424 45.995 3.32424C45.3649 3.32424 44.7413 3.45204 44.162 3.6999C43.5826 3.94777 43.0596 4.31056 42.6244 4.76633C42.1893 5.2221 41.8511 5.76138 41.6304 6.35157C41.4096 6.94176 41.3108 7.5706 41.34 8.20005C41.3801 9.42229 41.8842 10.5834 42.7499 11.4471C43.6155 12.3109 44.7777 12.8126 46 12.8501V12.8501ZM46 4.16005C47.29 4.16005 48.21 5.22005 48.21 8.16005C48.21 11.1001 47.29 12.1601 46 12.1601C44.71 12.1601 43.79 11.1001 43.79 8.16005C43.79 5.22005 44.7 4.16005 46 4.16005ZM84.54 10.3901H80.27L82.4 4.52005L84.54 10.3901ZM12.8 9.19005H10.16L11.48 6.00005L12.8 9.19005ZM7.8 9.99005H8.1V5.20005H7.8C7.29 6.90005 6.8 7.30005 5.89 7.30005H4.07V0.820052H6.9C8.54 0.820052 9.51 1.60005 10 4.00005H10.3V0.210052H0V0.510052C1.12 0.680052 1.46 1.00005 1.46 2.11005V14.2801C1.46 15.3901 1.12 15.7001 0 15.8701V16.1701H6V15.8701C4.48 15.6601 4 15.3901 4 14.2801V7.91005H5.86C6.75 7.92005 7.27 8.29005 7.78 10.0001L7.8 9.99005Z" fill="white"/>
</g>
<defs>
<clipPath id="clip0_2_1326">
<rect width="114.08" height="16.4" fill="white"/>
</clipPath>
</defs>
</svg>
