<svg width="100" height="26" viewBox="0 0 100 26" fill="none" xmlns="http://www.w3.org/2000/svg">
<g clip-path="url(#clip0_2_1336)">
<path d="M60.9199 7.16C59.4619 7.18367 58.03 7.55022 56.74 8.23C56.74 4.49 56.7999 1.23 56.8899 0L49.2 1.48V2.17L49.9599 2.26C51.0299 2.41 51.44 3.04 51.58 4.47C51.81 7.22 51.78 21.92 51.58 24.27C53.7276 24.7761 55.9237 25.0477 58.13 25.08C64.22 25.08 67.9 21.31 67.9 15.34C67.87 10.58 64.9199 7.16 60.9199 7.16ZM58.25 23.89C57.8113 23.8833 57.3736 23.8466 56.9399 23.78C56.8299 22.12 56.74 15.31 56.77 9.37C57.3471 9.16383 57.9572 9.06553 58.57 9.08C61.09 9.08 62.5099 12 62.5099 15.66C62.4799 20.35 60.74 23.89 58.25 23.89Z" fill="white"/>
<path d="M20.21 0.550049H0V1.55005L1.07 1.69005C2.61 1.91005 3.22 2.87005 3.39 5.00005C3.71026 10.0717 3.71026 15.1584 3.39 20.23C3.22 22.4 2.61 23.36 1.07 23.59L0 23.7801V24.7801H13V23.7801L11.64 23.63C10.1 23.4 9.49 22.4401 9.32 20.2701C9.2 18.7901 9.11 16.27 9.09 13.37L11.75 13.45C13.55 13.51 14.28 14.8401 14.75 16.7901H15.75V8.58005H14.75C14.34 10.52 13.59 11.86 11.75 11.92L9.05 12C9.05 8.15005 9.13 4.44005 9.31 2.20005H13.31C16.41 2.20005 18.09 4.20005 19.14 7.68005L20.32 7.36005L20.21 0.550049Z" fill="white"/>
<path d="M26.79 7C32.53 7 35.4 10.88 35.4 16C35.4 21.12 32.18 25.13 26.4 25.13C20.62 25.13 17.79 21.24 17.79 16.13C17.79 11.02 21 7 26.79 7ZM26.47 8.13C23.92 8.13 23.22 11.55 23.22 16.13C23.22 20.71 24.35 24.13 26.7 24.13C29.25 24.13 29.95 20.7 29.95 16.13C29.95 11.56 28.82 8.09 26.47 8.09V8.13Z" fill="white"/>
<path d="M69.3001 16.21C69.3001 11.45 72.3001 6.98999 78.2301 6.98999C83.0401 6.98999 85.3301 10.55 85.3601 15.22H74.6001C74.4901 19.45 76.6001 22.59 80.7501 22.59C82.158 22.6642 83.5426 22.2074 84.63 21.31L85.13 21.92C84.2925 22.9623 83.2242 23.7958 82.0094 24.3546C80.7946 24.9134 79.4665 25.1823 78.13 25.14C76.9504 25.1828 75.7747 24.9804 74.6774 24.5454C73.58 24.1105 72.5849 23.4525 71.7549 22.6132C70.925 21.7738 70.2782 20.7713 69.8557 19.6691C69.4331 18.567 69.2439 17.3891 69.3001 16.21V16.21ZM74.6601 14L80.0501 13.89C80.0501 11.51 79.7001 8.08999 77.7601 8.08999C75.8201 8.08999 74.6901 11.34 74.6601 14Z" fill="white"/>
<path d="M99.0001 7.89001C97.3341 7.2454 95.5554 6.94272 93.7701 7.00001C89.45 7.00001 86.84 9.52001 86.84 12.48C86.84 15.44 88.8401 16.71 91.5301 17.7C94.4601 18.7 95.2501 19.55 95.2501 20.92C95.2525 21.2903 95.1781 21.657 95.0317 21.9971C94.8853 22.3372 94.67 22.6433 94.3995 22.896C94.1289 23.1488 93.8088 23.3427 93.4595 23.4656C93.1102 23.5885 92.7393 23.6377 92.3701 23.61C90.2001 23.61 88.5801 22.34 87.3001 18.83L86.4301 19.06L86.5801 24.06C88.5237 24.7619 90.5736 25.1238 92.6401 25.13C97.2201 25.13 100 22.9 100 19.27C100 16.84 98.8101 15.5 95.8201 14.34C92.5801 13.1 91.4501 12.28 91.4501 10.81C91.4253 10.4835 91.4682 10.1554 91.576 9.84622C91.6838 9.53704 91.8543 9.25344 92.0768 9.01315C92.2992 8.77287 92.5688 8.58107 92.8688 8.44976C93.1688 8.31845 93.4926 8.25045 93.8201 8.25001C95.9101 8.25001 97.3301 9.56001 98.2601 12.57L99.1301 12.34L99.0001 7.89001Z" fill="white"/>
<path d="M50.36 7.44993C48.42 6.28993 44.88 6.83993 43.11 10.9599L43.2 6.95993L35.52 8.43993V9.12993L36.27 9.21993C37.34 9.36993 37.75 9.99993 37.9 11.4199C38.1147 14.7498 38.1147 18.0901 37.9 21.4199C37.78 22.8399 37.34 23.4799 36.27 23.6199L35.52 23.7099V24.7099H46.19V23.7099L44.8 23.6199C43.72 23.4799 43.32 22.8399 43.17 21.4199C42.9625 18.3307 42.9425 15.2316 43.11 12.1399C43.64 11.2999 46.11 10.5999 48.45 12.1399L50.36 7.44993Z" fill="white"/>
</g>
<defs>
<clipPath id="clip0_2_1336">
<rect width="100" height="25.14" fill="white"/>
</clipPath>
</defs>
</svg>
