<svg width="18" height="19" viewBox="0 0 18 19" fill="none" xmlns="http://www.w3.org/2000/svg">
<g clip-path="url(#clip0_2_177)">
<path fill-rule="evenodd" clip-rule="evenodd" d="M9.00002 0.830078C6.55575 0.830078 6.24927 0.840438 5.28932 0.884237C4.33138 0.927929 3.67712 1.08008 3.10466 1.30258C2.51283 1.53255 2.01092 1.84029 1.51055 2.34062C1.01021 2.841 0.702469 3.3429 0.472504 3.93473C0.250005 4.5072 0.0978569 5.16144 0.0541649 6.11939C0.0103653 7.07933 0 7.38582 0 9.8301C0 12.2743 0.0103653 12.5808 0.0541649 13.5408C0.0978569 14.4987 0.250005 15.153 0.472504 15.7254C0.702469 16.3173 1.01021 16.8192 1.51055 17.3195C2.01092 17.8199 2.51283 18.1276 3.10466 18.3576C3.67712 18.5801 4.33138 18.7322 5.28932 18.7759C6.24927 18.8197 6.55575 18.8301 9.00002 18.8301C11.4443 18.8301 11.7507 18.8197 12.7107 18.7759C13.6686 18.7322 14.3229 18.5801 14.8953 18.3576C15.4872 18.1276 15.9891 17.8199 16.4894 17.3195C16.9898 16.8192 17.2975 16.3173 17.5275 15.7254C17.75 15.153 17.9022 14.4987 17.9458 13.5408C17.9896 12.5808 18 12.2743 18 9.8301C18 7.38582 17.9896 7.07933 17.9458 6.11939C17.9022 5.16144 17.75 4.5072 17.5275 3.93473C17.2975 3.3429 16.9898 2.841 16.4894 2.34062C15.9891 1.84029 15.4872 1.53255 14.8953 1.30258C14.3229 1.08008 13.6686 0.927929 12.7107 0.884237C11.7507 0.840438 11.4443 0.830078 9.00002 0.830078ZM9.00002 2.45169C11.4031 2.45169 11.6878 2.46088 12.6368 2.50418C13.5143 2.54419 13.9908 2.69081 14.308 2.81406C14.728 2.97733 15.0279 3.17235 15.3428 3.48731C15.6577 3.80223 15.8527 4.10204 16.016 4.52214C16.1393 4.83927 16.2859 5.31581 16.3259 6.19331C16.3692 7.14232 16.3784 7.42698 16.3784 9.8301C16.3784 12.2332 16.3692 12.5178 16.3259 13.4669C16.2859 14.3443 16.1393 14.8209 16.016 15.138C15.8527 15.5581 15.6577 15.8579 15.3428 16.1728C15.0279 16.4878 14.728 16.6828 14.308 16.8461C13.9908 16.9693 13.5143 17.116 12.6368 17.156C11.6879 17.1993 11.4033 17.2085 9.00002 17.2085C6.59673 17.2085 6.31213 17.1993 5.36323 17.156C4.48574 17.116 4.00919 16.9693 3.69206 16.8461C3.27196 16.6828 2.97215 16.4878 2.65723 16.1728C2.34231 15.8579 2.14725 15.5581 1.98398 15.138C1.86073 14.8209 1.71411 14.3443 1.6741 13.4669C1.6308 12.5178 1.62162 12.2332 1.62162 9.8301C1.62162 7.42698 1.6308 7.14232 1.6741 6.19331C1.71411 5.31581 1.86073 4.83927 1.98398 4.52214C2.14725 4.10204 2.34227 3.80223 2.65723 3.48731C2.97215 3.17235 3.27196 2.97733 3.69206 2.81406C4.00919 2.69081 4.48574 2.54419 5.36323 2.50418C6.31224 2.46088 6.59691 2.45169 9.00002 2.45169ZM9.00002 5.20846C6.44754 5.20846 4.37838 7.27761 4.37838 9.8301C4.37838 12.3825 6.44754 14.4517 9.00002 14.4517C11.5525 14.4517 13.6216 12.3825 13.6216 9.8301C13.6216 7.27761 11.5525 5.20846 9.00002 5.20846ZM9.00002 12.8301C7.34314 12.8301 6 11.4869 6 9.8301C6 8.17322 7.34314 6.83008 9.00002 6.83008C10.6569 6.83008 12 8.17322 12 9.8301C12 11.4869 10.6569 12.8301 9.00002 12.8301ZM14.8842 5.02587C14.8842 5.62234 14.4007 6.10585 13.8042 6.10585C13.2078 6.10585 12.7242 5.62234 12.7242 5.02587C12.7242 4.42939 13.2078 3.94585 13.8042 3.94585C14.4007 3.94585 14.8842 4.42939 14.8842 5.02587Z" fill="white"/>
</g>
<defs>
<clipPath id="clip0_2_177">
<rect width="18" height="18" fill="white" transform="translate(0 0.830078)"/>
</clipPath>
</defs>
</svg>
