<svg width="18" height="18" viewBox="0 0 18 18" fill="none" xmlns="http://www.w3.org/2000/svg">
<g clip-path="url(#clip0_2_181)">
<path fill-rule="evenodd" clip-rule="evenodd" d="M18 17.0119H14.0218V11.2594C14.0218 9.75371 13.3995 8.72581 12.0311 8.72581C10.9844 8.72581 10.4023 9.41947 10.1313 10.088C10.0297 10.3279 10.0456 10.6622 10.0456 10.9964V17.0119H6.10443C6.10443 17.0119 6.15523 6.82195 6.10443 5.89569H10.0456V7.64029C10.2785 6.87749 11.5379 5.78881 13.5476 5.78881C16.041 5.78881 18 7.38777 18 10.8309V17.0119ZM2.11876 4.50524H2.09337C0.82338 4.50524 0 3.65546 0 2.57832C0 1.48021 0.847718 0.648254 2.14311 0.648254C3.43744 0.648254 4.2333 1.47813 4.2587 2.57518C4.2587 3.65233 3.43744 4.50524 2.11876 4.50524ZM0.45401 5.89569H3.96237V17.0119H0.45401V5.89569Z" fill="white"/>
</g>
<defs>
<clipPath id="clip0_2_181">
<rect width="18" height="16.3636" fill="white" transform="translate(0 0.648254)"/>
</clipPath>
</defs>
</svg>
