<svg width="88" height="72" viewBox="0 0 88 72" fill="none" xmlns="http://www.w3.org/2000/svg">
<g clip-path="url(#clip0_2_1305)">
<path d="M45.1187 33.9882C45.1187 32.5486 45.1187 31.1442 45.1187 29.7485C45.1088 29.519 45.0583 29.2931 44.9694 29.0814C44.9072 28.8955 44.7899 28.733 44.6331 28.6154C44.4764 28.4978 44.2875 28.4307 44.0916 28.423C43.9009 28.4031 43.7087 28.4421 43.5408 28.5347C43.3729 28.6273 43.2374 28.769 43.1524 28.9409C43.0377 29.1454 42.9351 29.3564 42.8452 29.5729C42.8054 29.2996 42.8231 29.0211 42.8972 28.7551C42.9712 28.489 43.1 28.2414 43.2753 28.028C43.4854 27.6952 43.7611 27.4087 44.0855 27.186C44.41 26.9632 44.7765 26.809 45.1626 26.7326C45.5486 26.6562 45.9462 26.6593 46.3311 26.7416C46.7159 26.824 47.0799 26.9839 47.4009 27.2116C47.7343 27.4664 47.9983 27.8009 48.1686 28.1844C48.3389 28.5678 48.4099 28.988 48.3753 29.4061C48.3753 33.9356 48.3753 38.4679 48.3753 43.0032V43.4421L50.1835 43.8108V26.7991H50.324V28.9672L50.4293 29.0199L53.4314 26.6147L55.6522 28.581C56.0823 28.3791 56.3281 27.8963 56.7846 27.7559L56.8636 27.8612C56.6159 28.1035 56.3551 28.3321 56.0823 28.5459C55.9759 28.6213 55.8914 28.7236 55.8374 28.8424C55.7835 28.9611 55.762 29.092 55.7751 29.2218C55.7751 33.3591 55.7751 37.4906 55.7751 41.6163C55.8388 42.3255 55.6726 43.0365 55.3011 43.644C54.9894 44.0477 54.5671 44.3522 54.0856 44.5205C53.6041 44.6888 53.0841 44.7136 52.5887 44.592C51.4915 44.4252 50.4293 44.0917 49.3496 43.8634C48.2201 43.5773 47.0463 43.5088 45.8911 43.6615C45.561 43.6817 45.246 43.8066 44.9918 44.0182C44.7376 44.2297 44.5576 44.5168 44.4779 44.8378C44.4364 44.9868 44.4265 45.1428 44.4491 45.2959C44.4716 45.4489 44.526 45.5955 44.6087 45.7262C44.6915 45.8569 44.8007 45.9688 44.9293 46.0547C45.058 46.1405 45.2032 46.1985 45.3557 46.2247C46.1063 46.2687 46.8596 46.2334 47.6028 46.1194C49.1477 45.8999 50.6839 45.6015 52.2288 45.3732C52.7822 45.2535 53.3572 45.2813 53.8965 45.4539C54.4357 45.6264 54.9201 45.9376 55.3011 46.3564C55.7193 46.8787 55.9167 47.5439 55.8511 48.2098C55.7855 48.8757 55.4621 49.4896 54.95 49.9202C54.4468 50.3325 53.839 50.5969 53.1944 50.6839C53.3672 50.501 53.5285 50.3076 53.6772 50.1046C53.8037 49.9284 53.8761 49.7191 53.8855 49.5023C53.8948 49.2856 53.8407 49.0709 53.7298 48.8844C53.6296 48.7371 53.4869 48.6237 53.3207 48.5594C53.1545 48.4951 52.9727 48.483 52.7994 48.5245C51.667 48.6913 50.5347 48.9108 49.4023 49.0775C48.3141 49.2779 47.2149 49.4128 46.1106 49.4813C45.6517 49.5089 45.1927 49.4302 44.7693 49.2512C44.3459 49.0722 43.9696 48.7978 43.6697 48.4495C43.3698 48.1011 43.1544 47.6882 43.0403 47.2429C42.9262 46.7976 42.9165 46.332 43.012 45.8824C43.1132 45.4031 43.3348 44.9575 43.6557 44.5874C43.9766 44.2173 44.3864 43.935 44.8466 43.7669C44.9428 43.7336 45.0248 43.6685 45.0791 43.5823C45.1333 43.4961 45.1566 43.394 45.145 43.2929C45.145 41.2564 45.145 39.2287 45.145 37.1483C45.145 36.7269 45.0836 36.6392 44.6622 36.7182C44.3412 36.7579 44.0375 36.8854 43.7844 37.0868C43.4684 37.4029 43.6001 37.754 44.1355 38.2368C43.8591 38.2466 43.5852 38.1817 43.3426 38.0489C43.1001 37.916 42.8979 37.7201 42.7574 37.4819C42.5565 37.1652 42.4386 36.8029 42.4149 36.4286C42.3911 36.0543 42.4622 35.68 42.6214 35.3405C42.7807 35.0009 43.0231 34.707 43.3261 34.486C43.6291 34.265 43.983 34.124 44.355 34.076C44.5832 34.0672 44.8378 34.0321 45.1187 33.9882ZM50.3854 43.8546C50.6394 43.9368 50.9095 43.9564 51.1726 43.9118C51.4358 43.8673 51.6844 43.7599 51.8972 43.5988C52.11 43.4377 52.2808 43.2276 52.395 42.9863C52.5093 42.7451 52.5637 42.4799 52.5536 42.2132V37.4731C52.5734 37.344 52.5659 37.2121 52.5314 37.0862C52.497 36.9602 52.4363 36.8429 52.3535 36.7418C52.2707 36.6408 52.1676 36.5584 52.0508 36.4998C51.9341 36.4413 51.8063 36.408 51.6758 36.4022C51.5213 36.3709 51.3617 36.3744 51.2088 36.4125C51.0558 36.4505 50.9132 36.5221 50.7913 36.6222C50.6694 36.7222 50.5714 36.8481 50.5042 36.9907C50.437 37.1333 50.4025 37.2891 50.403 37.4467V43.8898L50.3854 43.8546ZM51.0877 28.8092C51.0101 28.879 50.928 28.9435 50.8419 29.0024C50.6769 29.0871 50.543 29.222 50.4594 29.3876C50.3759 29.5531 50.3469 29.741 50.3767 29.924C50.3767 31.1617 50.3767 32.3994 50.3767 33.6371C50.3782 33.9133 50.4847 34.1786 50.6746 34.3792C50.8644 34.5798 51.1234 34.7007 51.3991 34.7174C51.6748 34.7342 51.9466 34.6455 52.1593 34.4693C52.372 34.2932 52.5098 34.0428 52.5448 33.7688C52.5448 32.891 52.4921 32.0746 52.5448 31.232C52.6174 30.8776 52.5787 30.5096 52.4342 30.1781C52.2896 29.8465 52.0462 29.5677 51.7372 29.3798C51.4989 29.2091 51.2757 29.0182 51.0701 28.8092H51.0877ZM50.403 36.5602C50.6893 36.2955 51.0609 36.1421 51.4505 36.1276C51.8401 36.1131 52.2221 36.2385 52.5273 36.4812V34.629C52.233 34.8859 51.8557 35.0274 51.4651 35.0274C51.0746 35.0274 50.6972 34.8859 50.403 34.629V36.5602Z" fill="white"/>
<path d="M35.1118 15.8003C36.3057 14.9795 37.2479 13.8429 37.833 12.5174C37.9056 13.2052 37.8399 13.9006 37.6399 14.5626C37.2649 16.0116 36.3958 17.2842 35.1826 18.1608C33.9695 19.0374 32.4884 19.463 30.9949 19.3642C29.3472 19.2678 27.784 18.6025 26.5721 17.4819C25.3603 16.3613 24.5749 14.8548 24.35 13.2196C24.1246 11.4509 24.5287 9.65926 25.4917 8.15864C26.4546 6.65802 27.915 5.54415 29.6168 5.01223C29.7737 4.96748 29.9365 4.94676 30.0996 4.95078C28.9444 5.62316 28.0457 6.66079 27.5452 7.90017L32.6013 5.65302V6.14458C32.6013 8.26885 32.6013 10.3931 32.6013 12.5086C32.6158 12.618 32.5923 12.7291 32.5348 12.8234C32.4773 12.9176 32.3893 12.9893 32.2853 13.0265C31.1178 13.5971 29.9591 14.1852 28.7741 14.7821L28.4757 14.9576C28.9756 15.5625 29.614 16.0379 30.3368 16.3435C31.0596 16.6491 31.8454 16.776 32.6276 16.7132C33.27 16.6012 33.9014 16.4338 34.5149 16.2129C34.6246 16.1838 34.7192 16.1142 34.7795 16.018C34.8398 15.9219 34.8613 15.8064 34.8397 15.695C34.8397 14.3959 34.8397 13.0616 34.8397 11.7976C34.8483 11.6926 34.8293 11.5871 34.7847 11.4917C34.74 11.3962 34.6712 11.3141 34.5851 11.2534C34.1375 10.911 33.7073 10.5423 33.2158 10.1473C33.6459 9.79621 34.0497 9.43631 34.4798 9.12031C34.6008 9.03452 34.698 8.91948 34.7625 8.78594C34.8269 8.6524 34.8565 8.5047 34.8485 8.35663C34.8485 7.47883 34.8485 6.52203 34.8485 5.60913L31.6006 4.73133C30.3015 4.40655 28.9672 4.03787 27.6857 3.75698C27.4806 3.69641 27.2639 3.68669 27.0542 3.72865C26.8446 3.77061 26.6483 3.863 26.4824 3.99783C26.3164 4.13266 26.1858 4.30587 26.1018 4.50249C26.0178 4.69911 25.983 4.91323 26.0003 5.12634C26.0615 5.433 26.168 5.72884 26.3163 6.00413C25.9636 5.88628 25.6506 5.67292 25.4119 5.38778C25.1733 5.10264 25.0184 4.7569 24.9645 4.38899C24.8799 3.96632 24.8815 3.53093 24.9691 3.10889C25.0568 2.68684 25.2287 2.28682 25.4745 1.93277C25.7204 1.57872 26.0352 1.27793 26.4 1.04839C26.7649 0.818852 27.1723 0.665296 27.5979 0.596914C28.4838 0.459125 29.3902 0.549766 30.2313 0.860253C31.5831 1.25526 32.9261 1.68538 34.2867 2.06283C34.6778 2.1551 35.0828 2.17296 35.4805 2.1155C35.685 2.09798 35.8769 2.00935 36.0228 1.86502C36.1688 1.72069 36.2595 1.52978 36.2793 1.32548C36.2781 1.12298 36.2177 0.925261 36.1053 0.756768C35.993 0.588275 35.8337 0.456404 35.6473 0.377465C35.3049 0.254574 34.945 0.193128 34.5061 0.0790149C35.0099 -0.0413471 35.5353 -0.0387835 36.0379 0.0864893C36.5406 0.211762 37.0057 0.45607 37.3941 0.798807C37.7489 1.12543 37.9948 1.55323 38.0985 2.02426C38.2021 2.4953 38.1584 2.9868 37.9734 3.43219C37.5521 4.83667 36.4636 5.33701 35.1118 5.49501C35.1118 6.28503 35.1645 7.07504 35.1118 7.86506C35.0679 8.15366 35.1134 8.44877 35.242 8.7108C35.3707 8.97283 35.5764 9.18924 35.8316 9.33098C36.1407 9.55323 36.434 9.79667 36.7094 10.0595L35.3137 11.1919C35.2108 11.2758 35.1421 11.3944 35.1206 11.5255C35.1118 12.9212 35.1118 14.3256 35.1118 15.8003ZM28.3967 14.6504C28.6158 14.5324 28.8415 14.4269 29.0726 14.3344C29.21 14.2971 29.3285 14.2098 29.4048 14.0896C29.4812 13.9695 29.5098 13.8251 29.4851 13.6848C29.4851 11.8327 29.4851 9.98055 29.4851 8.11962V7.32083C28.7917 7.62806 28.1772 7.90017 27.5628 8.19862C27.4601 8.26897 27.388 8.37562 27.3609 8.49707C26.9668 9.67266 26.9151 10.936 27.2117 12.1399C27.4167 13.0587 27.8147 13.9234 28.3791 14.6768L28.3967 14.6504Z" fill="white"/>
<path d="M19.4607 57.873C19.0185 57.7466 18.628 57.4829 18.3455 57.12C18.0631 56.7571 17.9034 56.3137 17.8894 55.8541C17.8581 55.4049 17.9196 54.954 18.0699 54.5296C18.2203 54.1052 18.4563 53.7162 18.7634 53.3869C19.0705 53.0576 19.4421 52.795 19.855 52.6153C20.2679 52.4357 20.7133 52.343 21.1636 52.3429C22.2225 52.3724 23.2681 52.5862 24.2534 52.9749C25.4209 53.3172 26.5796 53.6508 27.7646 53.958C28.0224 54.0103 28.2881 54.0103 28.5459 53.958C28.7359 53.9331 28.9125 53.8467 29.0489 53.712C29.1852 53.5773 29.2736 53.4016 29.3008 53.2119C29.33 53.0146 29.2912 52.8131 29.1907 52.6408C29.0902 52.4685 28.9339 52.3355 28.7477 52.2639C28.3873 52.1271 28.0177 52.0156 27.6417 51.9303C28.2825 51.588 29.6782 52.0093 30.319 52.5623C30.6857 52.8807 30.9462 53.3037 31.0654 53.7744C31.1847 54.2452 31.157 54.7412 30.9861 55.1957C30.635 56.451 29.7572 57.0918 28.0718 57.3024C28.0718 58.1276 28.0718 58.9615 28.0718 59.7866C28.0318 60.0317 28.0674 60.2832 28.1741 60.5075C28.2807 60.7318 28.4533 60.9182 28.6687 61.0418C29.0292 61.2973 29.375 61.5728 29.7045 61.867C29.2393 62.2444 28.8268 62.6131 28.3352 62.9642C28.2484 63.0243 28.1792 63.1064 28.1344 63.202C28.0897 63.2976 28.0712 63.4033 28.0806 63.5084C28.0806 64.8603 28.0806 66.2121 28.0806 67.6516C29.2341 66.8639 30.1483 65.7736 30.7228 64.5004H30.8281C30.821 64.8938 30.7917 65.2865 30.7403 65.6766C30.5258 67.2861 29.7091 68.7544 28.4548 69.7855C27.2005 70.8166 25.6019 71.3339 23.9813 71.233C22.2779 71.1432 20.6628 70.4469 19.428 69.2701C18.1932 68.0933 17.4202 66.5135 17.2486 64.8164C17.1092 63.0989 17.5533 61.3847 18.5091 59.951C19.4649 58.5173 20.8764 57.448 22.5154 56.9162C22.6883 56.8594 22.8689 56.8298 23.0509 56.8284C22.1713 57.3626 21.436 58.104 20.909 58.9878C20.77 59.2323 20.6666 59.4953 20.6018 59.769L25.5701 57.557V58.0924C25.5701 60.1816 25.5701 62.262 25.5701 64.3511C25.5807 64.4657 25.5527 64.5806 25.4907 64.6775C25.4288 64.7745 25.3362 64.8481 25.2278 64.8866C23.9901 65.4835 22.77 66.1067 21.4006 66.7914L22.0502 67.3181C22.7872 67.9616 23.6987 68.3719 24.6691 68.4969C25.6395 68.6219 26.6252 68.456 27.5013 68.0203C27.6088 67.9786 27.6996 67.9028 27.7599 67.8045C27.8202 67.7062 27.8465 67.5908 27.8348 67.4761C27.8348 66.1682 27.8348 64.8427 27.8348 63.5699C27.8435 63.4717 27.8261 63.373 27.7845 63.2836C27.7429 63.1942 27.6785 63.1174 27.5978 63.0608C27.1414 62.7096 26.72 62.3322 26.2109 61.9284C26.6937 61.5422 27.1502 61.1823 27.5978 60.7961C27.7144 60.7125 27.7933 60.5863 27.8173 60.4449C27.8173 59.4179 27.8173 58.3997 27.8173 57.4078C25.4385 56.8109 23.086 56.1964 20.7247 55.6522C20.539 55.5898 20.3418 55.5687 20.1471 55.5906C19.9523 55.6124 19.7647 55.6766 19.5974 55.7787C19.4302 55.8807 19.2872 56.0181 19.1787 56.1813C19.0701 56.3444 18.9986 56.5294 18.9691 56.7231C18.9434 56.941 18.9752 57.1619 19.0615 57.3636C19.1477 57.5654 19.2854 57.741 19.4607 57.873V57.873ZM22.454 59.1721C21.8746 59.4267 21.3567 59.6813 20.8125 59.8919C20.6732 59.9415 20.5487 60.0253 20.4505 60.1358C20.3523 60.2463 20.2835 60.3798 20.2507 60.5239C19.9885 61.3977 19.9085 62.316 20.0157 63.222C20.1229 64.128 20.415 65.0023 20.8739 65.7907C21.2865 66.5281 21.2865 66.5281 22.0414 66.1682C22.1204 66.1682 22.2257 66.1067 22.2784 66.0541C22.3661 65.9799 22.4251 65.8775 22.4452 65.7644C22.454 63.605 22.454 61.4456 22.454 59.1721V59.1721Z" fill="white"/>
<path d="M9.65575 29.055L8.82184 29.9328H8.71651C8.72998 29.8365 8.76283 29.744 8.81306 29.6607C9.69086 28.5986 10.674 27.5364 11.622 26.4568C11.8802 26.7339 12.1927 26.9549 12.54 27.106C12.8874 27.257 13.2622 27.3348 13.6409 27.3345C14.3958 27.3345 14.905 26.8342 15.1683 25.9476C15.6423 26.4655 15.5106 27.7647 14.9313 28.6864C14.6469 29.0958 14.2748 29.4367 13.842 29.6842C13.4092 29.9317 12.9267 30.0796 12.4296 30.1172V33.2246C12.4296 36.7972 12.4296 40.3786 12.4296 43.9512C12.4296 44.1092 12.3594 44.3726 12.254 44.4077C12.1487 44.4428 11.8502 44.3374 11.7186 44.1092C9.57674 40.2469 7.42615 36.37 5.26677 32.4784L4.10808 30.3717V40.203C5.27216 40.3994 6.33937 40.9731 7.14525 41.8357C7.30325 41.6689 7.45248 41.5022 7.61048 41.3442C7.76849 41.1862 7.87382 41.1159 8.00549 41.0018L8.10205 41.1247L5.15266 44.4428C4.74126 43.9152 4.16224 43.5436 3.51118 43.3894C3.18131 43.3153 2.83574 43.3634 2.53868 43.5249C2.24162 43.6863 2.01326 43.9501 1.89603 44.2672C1.79722 44.5696 1.81438 44.8979 1.94417 45.1883C2.07396 45.4787 2.3071 45.7104 2.59827 45.8385C2.87917 45.9789 3.17762 46.0667 3.47607 46.1808C2.82508 46.3217 2.14545 46.2346 1.551 45.9342C0.956541 45.6338 0.483351 45.1382 0.210668 44.5306C-0.029805 43.888 -0.050853 43.1839 0.150807 42.5281C0.352466 41.8723 0.765494 41.3017 1.32547 40.9053C1.88024 40.5322 2.52045 40.3057 3.18639 40.2469L3.85352 40.1855C3.85352 40.0889 3.85352 39.9924 3.85352 39.8958C3.85352 38.6844 3.85352 37.4731 3.85352 36.2529C3.85352 35.9369 3.72185 35.8404 3.44973 35.8755C3.23954 35.8888 3.03247 35.9332 2.83528 36.0072C2.71854 36.0406 2.61216 36.103 2.52602 36.1886C2.43988 36.2741 2.3768 36.3801 2.34263 36.4966C2.30846 36.6132 2.30433 36.7364 2.33061 36.855C2.35689 36.9735 2.41273 37.0835 2.49294 37.1746C2.56316 37.2624 2.64216 37.3414 2.72116 37.4292C1.69414 37.4292 1.00946 36.411 0.965572 35.4717C0.902845 35.104 0.953171 34.7259 1.1099 34.3873C1.26663 34.0488 1.52238 33.7658 1.84337 33.5757C2.51013 33.2727 3.1999 33.0232 3.90619 32.8295C3.90619 32.0044 3.90619 31.074 3.90619 30.1172C3.82501 29.8078 3.66511 29.5248 3.44206 29.2956C3.21901 29.0664 2.94041 28.8988 2.63338 28.8092C2.46792 28.7615 2.29117 28.771 2.13182 28.8364C1.97247 28.9017 1.83989 29.019 1.75559 29.1691C1.60636 29.4325 1.49225 29.7222 1.36058 29.9943C1.20524 29.4055 1.22735 28.7839 1.42413 28.2076C1.6209 27.6313 1.98358 27.126 2.4666 26.7552C2.92876 26.4163 3.49356 26.247 4.06593 26.2758C4.6383 26.3046 5.18327 26.5297 5.60911 26.9132C6.08579 27.3985 6.48807 27.9517 6.80291 28.5547C8.5585 31.6621 10.2526 34.7958 11.9731 37.9208L12.1399 38.1753V35.3576C12.1399 33.7337 12.1399 32.101 12.1399 30.4683C12.1399 30.2049 12.1399 30.0908 11.7976 30.082C11.1365 30.0416 10.5044 29.7961 9.98931 29.3798L9.65575 29.055Z" fill="white"/>
<path d="M26.7903 44.3813L24.3588 42.3624L23.2704 43.1173L23.165 43.012C23.404 42.8094 23.653 42.6189 23.9111 42.4414C24.0316 42.378 24.1299 42.2793 24.1926 42.1585C24.2554 42.0377 24.2797 41.9005 24.2623 41.7655C24.2623 40.0099 24.2623 38.2543 24.2623 36.569C24.2801 36.1842 24.204 35.8008 24.0403 35.4521C23.8766 35.1033 23.6304 34.7997 23.323 34.5676C23.0067 34.3564 22.7426 34.0759 22.551 33.7474C22.3593 33.4188 22.2451 33.0509 22.217 32.6716C22.2001 32.1951 22.3128 31.723 22.5431 31.3056C22.7735 30.8882 23.1128 30.5412 23.5249 30.3015C23.726 30.1251 23.9621 29.9932 24.2178 29.9145C24.4735 29.8359 24.7429 29.8122 25.0084 29.8451C24.8936 29.9174 24.7875 30.0028 24.6924 30.0996C24.5582 30.2169 24.4518 30.3625 24.3809 30.526C24.3099 30.6894 24.2761 30.8666 24.282 31.0446C24.2879 31.2227 24.3333 31.3973 24.4149 31.5557C24.4965 31.7141 24.6122 31.8524 24.7538 31.9605C25.0347 32.2239 25.3771 32.4346 25.6843 32.6716C25.9915 32.9086 26.2197 33.049 26.4655 33.2685C26.6755 33.4428 26.842 33.6637 26.9517 33.9135C27.0614 34.1634 27.1113 34.4355 27.0975 34.708C27.0975 36.7006 27.0975 38.6932 27.0975 40.6946C27.0905 40.8115 27.1144 40.9283 27.1668 41.0331C27.2192 41.1378 27.2982 41.227 27.396 41.2915C27.8876 41.6602 28.3616 42.0552 28.8268 42.4239C28.9853 42.3734 29.1204 42.2676 29.2074 42.1258C29.2945 41.984 29.3276 41.8156 29.3008 41.6514C29.3008 39.6149 29.3008 37.5814 29.3008 35.5507C29.3102 35.4137 29.2872 35.2764 29.2339 35.1499C29.1805 35.0234 29.0982 34.9111 28.9936 34.8222C28.775 34.6194 28.567 34.4055 28.3703 34.1814L30.8018 32.0395L33.0227 34.0058C32.9589 34.1013 32.8885 34.1923 32.812 34.2779C32.5742 34.4684 32.3901 34.7175 32.2778 35.0007C32.1654 35.2838 32.1287 35.5914 32.1712 35.8931C32.1712 37.5082 32.1712 39.1321 32.1712 40.7473C32.1624 40.857 32.182 40.9671 32.2281 41.0671C32.2742 41.167 32.3453 41.2534 32.4345 41.3178C33.0402 41.8006 33.6283 42.301 34.1901 42.7838C34.5061 42.7135 34.5676 42.5204 34.5676 42.2307C34.5676 40.0187 34.5676 37.8418 34.5676 35.6034C34.5806 35.4664 34.5584 35.3284 34.5031 35.2025C34.4478 35.0765 34.3612 34.9667 34.2516 34.8836C34.0409 34.7168 33.8478 34.5062 33.6108 34.2779L36.0598 32.0308L38.3333 33.9005C38.5791 33.6898 38.8073 33.4791 39.0531 33.286C39.1364 33.2374 39.2292 33.2075 39.3252 33.1982C39.2949 33.2823 39.2536 33.362 39.2023 33.4352C38.6844 33.8917 38.1753 34.3657 37.6399 34.8046C37.5363 34.8842 37.4546 34.9887 37.4024 35.1085C37.3502 35.2282 37.3292 35.3592 37.3414 35.4893C37.3414 37.2449 37.3414 39.0005 37.3414 40.7561C37.3535 40.8597 37.334 40.9647 37.2855 41.0571C37.2369 41.1495 37.1616 41.2251 37.0693 41.274C35.4893 42.222 33.9268 43.1875 32.3643 44.1707C32.2905 44.2431 32.1912 44.2836 32.0878 44.2836C31.9844 44.2836 31.8851 44.2431 31.8113 44.1707C31.0301 43.5299 30.2313 42.9154 29.4061 42.2571L26.7903 44.3813Z" fill="white"/>
<path d="M44.7676 58.9L46.8392 61.1296L49.7359 58.8123L51.7899 61.1033C52.1849 60.8663 52.5185 60.524 52.9135 60.3045L53.0101 60.4625C52.7204 60.6907 52.4132 60.9102 52.1323 61.156C52.0207 61.2588 51.9518 61.3998 51.9391 61.551C51.9391 63.4178 51.9391 65.2875 51.9391 67.1601C51.9496 67.3171 52.0078 67.4672 52.1059 67.5902C52.3956 67.9413 52.7116 68.2661 52.9837 68.6172C53.3085 68.4768 53.4577 68.0818 53.8088 68.0203L53.8878 68.1344L50.9121 70.9522L48.5684 68.468C49.2268 68.152 49.1478 67.5902 49.139 67.0196C49.139 65.7293 49.139 64.4477 49.139 63.1573C49.1528 62.9839 49.1276 62.8095 49.0654 62.647C49.0031 62.4845 48.9053 62.3379 48.7791 62.2181C48.349 61.7968 47.9627 61.3403 47.5677 60.8926C47.3579 60.9641 47.1798 61.1069 47.0643 61.2962C46.9488 61.4854 46.9033 61.7091 46.9357 61.9284C46.9796 63.7455 46.9796 65.5625 46.9357 67.3795C46.9085 67.5423 46.925 67.7094 46.9836 67.8636C47.0422 68.0179 47.1408 68.1537 47.2693 68.2573C47.4298 68.4074 47.5794 68.5688 47.7169 68.7401L45.5137 70.9346L43.5211 68.705C43.5211 68.6436 43.5211 68.6172 43.5211 68.6085C43.7288 68.4485 43.8887 68.2346 43.9831 67.99C44.0775 67.7454 44.1029 67.4796 44.0565 67.2215C44.0565 65.8258 44.0565 64.4389 44.0565 63.052C44.0509 62.829 43.974 62.6137 43.8371 62.4375C43.4245 61.9196 42.9593 61.4281 42.5467 60.9277C42.351 61.0074 42.1871 61.1497 42.0807 61.3323C41.9743 61.5149 41.9314 61.7276 41.9586 61.9372C41.9586 63.6928 41.9586 65.5186 41.9586 67.3181C41.9496 67.4844 41.9799 67.6506 42.047 67.8031C42.1141 67.9555 42.2161 68.0901 42.3448 68.1959C42.5229 68.3604 42.69 68.5363 42.8452 68.7226L40.6595 70.9961L38.4913 68.547C38.4913 68.547 38.4913 68.4768 38.4913 68.468C38.7365 68.3071 38.9277 68.0764 39.0404 67.8057C39.1531 67.535 39.1819 67.2367 39.1233 66.9494C39.1233 65.5625 39.1233 64.1668 39.1233 62.7799C39.1165 62.5963 39.0485 62.4202 38.9302 62.2795C38.5703 61.8319 38.1665 61.4018 37.754 60.9453L36.8323 61.7178H36.7445C36.7445 61.6388 36.7445 61.5334 36.8411 61.4808C37.7803 60.6468 38.7371 59.8217 39.7115 58.9703L41.8006 61.1823L44.7676 58.9Z" fill="white"/>
<path d="M47.6643 9.29587C47.9877 9.0488 48.3247 8.82021 48.6738 8.61119L48.7616 8.76041C48.5548 8.9367 48.3379 9.10083 48.112 9.25198C47.9954 9.32196 47.9007 9.42318 47.8387 9.54418C47.7766 9.66518 47.7497 9.80113 47.7609 9.93666C47.7609 11.8854 47.7609 13.8253 47.7609 15.774C47.8163 16.8227 47.6946 17.8732 47.401 18.8814C47.0147 19.8762 46.2832 20.6987 45.3403 21.1984C44.3973 21.698 43.306 21.8415 42.2659 21.6026C42.3341 21.5661 42.4044 21.5338 42.4766 21.506C43.0959 21.3327 43.6473 20.974 44.0568 20.4782C44.4664 19.9823 44.7144 19.3731 44.7676 18.7322C44.8642 17.981 44.917 17.2248 44.9256 16.4675C44.9256 14.589 44.9256 12.7017 44.9256 10.8232C44.9213 10.6286 44.8603 10.4395 44.7501 10.279C44.3726 9.76988 43.9688 9.28709 43.5563 8.77797C43.2929 9.00619 43.0296 9.20809 42.8014 9.43631C42.7063 9.52922 42.6498 9.65464 42.6434 9.78743C42.6434 11.8064 42.6434 13.8341 42.6434 15.853C42.657 15.9987 42.7152 16.1366 42.8101 16.248C42.9769 16.4587 43.1788 16.6518 43.3807 16.8625L44.2585 16.2129C44.2585 16.3797 44.2585 16.4762 44.197 16.5113L41.0721 19.0043L39.0444 17.1258L38.2631 17.6261L38.1403 17.5559C38.2193 17.4857 38.2895 17.3979 38.3685 17.3277C38.7898 17.0117 39.3955 16.7747 39.5974 16.3533C39.7249 15.8154 39.7458 15.2578 39.6588 14.7119C39.6588 11.4728 39.6588 8.24251 39.6588 5.00345C39.6588 4.45921 39.5798 3.99398 38.9303 3.76575L42.5819 0.877808V9.2432L45.4347 6.80293L47.6643 9.29587Z" fill="white"/>
<path d="M61.1297 44.3023L58.2066 41.8445L57.3288 42.494L57.2235 42.3624C57.4254 42.178 57.6097 41.9937 57.8204 41.8269C57.9043 41.7646 57.9709 41.6819 58.0139 41.5867C58.0569 41.4914 58.0749 41.3868 58.0662 41.2827C58.0662 39.2023 58.0662 37.1132 58.0662 35.0328C58.0557 34.9182 58.0836 34.8033 58.1456 34.7064C58.2076 34.6094 58.3001 34.5358 58.4085 34.4973C59.9271 33.7161 61.4457 32.9173 62.9906 32.0922L66.1068 34.7958L66.9846 34.0145L67.0899 34.1023C67.0197 34.1901 66.9758 34.3218 66.888 34.3744C66.6509 34.5348 66.4645 34.7597 66.351 35.0226C66.2374 35.2854 66.2015 35.5753 66.2473 35.8579C66.2473 37.6135 66.2473 39.3691 66.2473 41.0808C66.2597 41.19 66.2366 41.3003 66.1812 41.3952C66.1258 41.4901 66.0412 41.5646 65.94 41.6075C64.3688 42.494 62.7712 43.3894 61.1297 44.3023ZM63.3944 42.731C63.3944 42.6608 63.3944 42.652 63.3944 42.6345C63.3944 40.44 63.3944 38.2426 63.3944 36.0422C63.3835 35.9113 63.324 35.7892 63.2276 35.6999C62.5078 35.0152 61.788 34.3481 61.0595 33.681C61.0595 33.681 60.9805 33.681 60.9103 33.6283C60.9103 35.9018 60.9103 38.1314 60.9103 40.3698C60.9096 40.4542 60.9409 40.5358 60.998 40.598L63.3944 42.731Z" fill="white"/>
<path d="M67.3533 70.8294C66.9108 70.5352 66.4473 70.274 65.9663 70.0481C65.7419 69.9744 65.4983 69.9856 65.2816 70.0794C65.0648 70.1732 64.89 70.3432 64.7901 70.5572C64.6409 70.9084 64.8428 71.3297 65.2992 71.6194L65.6328 71.8213C65.2415 71.8234 64.858 71.7127 64.5279 71.5026C64.1979 71.2924 63.9354 70.9917 63.7719 70.6363C63.58 70.2772 63.4892 69.8728 63.5093 69.4662C63.5294 69.0595 63.6596 68.666 63.886 68.3276C64.2945 67.7603 64.7402 67.2208 65.2202 66.7125C65.3991 66.5246 65.5929 66.3514 65.7996 66.1946C65.2378 65.6767 64.7111 65.2115 64.2195 64.7287C64.0864 64.6051 64.0048 64.4358 63.9913 64.2547C63.9913 63.3769 63.9913 62.4991 63.9913 61.6213C63.9926 61.5534 64.009 61.4866 64.0394 61.4259C64.0698 61.3652 64.1133 61.312 64.1669 61.2702C65.5889 60.3924 67.0197 59.6024 68.4593 58.7597C68.6612 58.9177 68.8894 59.1371 69.144 59.3127C69.3404 59.4733 69.5779 59.5757 69.8295 59.6084C70.0812 59.6411 70.3369 59.6028 70.5679 59.4978C70.7989 59.3928 70.996 59.2253 71.1368 59.0142C71.2776 58.8031 71.3566 58.5568 71.3648 58.3032C71.4862 58.5008 71.5645 58.7217 71.5948 58.9516C71.625 59.1815 71.6065 59.4152 71.5404 59.6375C71.2887 60.5546 70.8393 61.4055 70.2237 62.1304L69.8725 62.5693C70.4431 63.0258 71.0049 63.4471 71.5491 63.9299C71.6736 64.0434 71.7491 64.2007 71.7598 64.3688C71.7598 65.5626 71.7598 66.7652 71.7598 67.9678C71.746 68.1067 71.6801 68.2353 71.5755 68.3276C70.2061 69.2054 68.8192 70.0832 67.441 70.961H67.3708L67.3533 70.8294ZM67.9151 64.3688C66.6335 65.7118 65.15 66.7827 64.1844 68.3452C65.8873 66.5194 68.0643 67.2567 69.0825 69.2844C69.0825 67.9678 69.0825 66.7301 69.0825 65.4836C69.0751 65.4139 69.0442 65.3489 68.9947 65.2993C68.6436 64.9569 68.3013 64.7024 67.9151 64.3688ZM66.651 60.1905V63.1048C66.6477 63.2029 66.6787 63.2992 66.7388 63.3769C67.0548 63.6753 67.3972 63.9562 67.7395 64.2547C68.8746 63.3581 69.8585 62.2853 70.6538 61.0771C69.223 62.2094 67.8887 61.8671 66.651 60.1905Z" fill="white"/>
<path d="M80.8713 42.0816L81.6701 41.4232C81.6701 41.7041 80.0989 43.1788 78.6681 44.2849L76.6052 42.3537L75.7274 43.0647L75.6572 43.0121C75.6967 42.915 75.7531 42.8258 75.824 42.7487C76.1488 42.4503 76.4999 42.1781 76.8071 41.8709C76.9478 41.74 77.0353 41.5619 77.0529 41.3706C77.0529 37.6663 77.0529 33.9678 77.0529 30.2752C77.0549 29.9794 77.0195 29.6844 76.9476 29.3974C76.907 29.1796 76.8014 28.9792 76.6448 28.8225C76.4881 28.6658 76.2876 28.5602 76.0698 28.5197L79.8794 25.816V27.2117C79.8794 31.6007 79.8794 35.9897 79.8794 40.4226C79.8537 40.6153 79.8772 40.8114 79.9478 40.9925C80.0184 41.1736 80.1338 41.3339 80.2832 41.4584C80.497 41.6486 80.6938 41.8571 80.8713 42.0816V42.0816Z" fill="white"/>
<path d="M60.1728 58.8123L62.4902 62.8413L60.2606 64.474L58.1539 66.019C58.0095 66.1599 57.9231 66.3498 57.9118 66.5513C57.9004 66.7527 57.9649 66.9511 58.0924 67.1074C58.7244 67.6955 59.3565 68.2749 59.9709 68.863C60.1377 69.0298 60.243 69.0035 60.4098 68.863C61.1559 68.2661 61.9196 67.678 62.6745 67.1074C62.7711 67.0417 62.8741 66.9859 62.9818 66.9406L63.0344 67.0284C63.0065 67.0852 62.9678 67.1359 62.9203 67.1776C61.3929 68.3978 59.8568 69.6091 58.3294 70.838C58.11 71.0136 57.9871 70.9697 57.794 70.7942C56.9162 70.0041 56.0384 69.2317 55.2308 68.468C54.8446 68.6172 54.6339 69.0473 54.2301 69.1176L54.1599 69.021C54.3415 68.8406 54.5383 68.6762 54.748 68.5294C54.8688 68.4539 54.9647 68.3446 55.024 68.2151C55.0833 68.0856 55.1033 67.9416 55.0816 67.8009C55.0816 65.9224 55.0816 64.0351 55.0816 62.1567C55.0655 62.0176 55.0954 61.8771 55.1668 61.7566C55.2381 61.6361 55.3469 61.5423 55.4766 61.4895C56.8635 60.7346 58.2153 59.9358 59.5847 59.1546L60.1728 58.8123ZM57.9344 60.4011V65.8346L60.1816 64.1844L57.9344 60.4011Z" fill="white"/>
<path d="M19.847 32.1185L22.1556 36.1301L18.7849 38.623L18.0212 39.176C17.8935 39.2356 17.784 39.3283 17.7042 39.4445C17.6244 39.5607 17.5771 39.6961 17.5672 39.8367C17.5574 39.9773 17.5853 40.1179 17.6482 40.2441C17.711 40.3703 17.8065 40.4773 17.9246 40.5541L19.8382 42.3536C20.795 41.6514 21.6816 40.9053 22.612 40.2118L22.7349 40.3786L17.7403 44.3287L14.8787 41.6953L14.0009 42.4239L13.9131 42.3624C13.9131 42.2834 13.9658 42.1605 14.0272 42.1342C14.8084 41.7655 14.8172 41.0984 14.8084 40.3786C14.7645 38.6932 14.8084 37.0166 14.8084 35.34C14.7959 35.2309 14.8191 35.1206 14.8745 35.0256C14.9299 34.9307 15.0145 34.8562 15.1157 34.8134C16.6343 33.9356 18.1353 33.0578 19.6451 32.2239L19.847 32.1185ZM17.6262 33.7073V39.176L19.8733 37.5258L17.6262 33.7073Z" fill="white"/>
<path d="M57.5833 10.9637L54.8797 12.9563L53.2646 14.1413C53.119 14.2658 53.0255 14.4406 53.0028 14.6308C52.98 14.8211 53.0296 15.0129 53.1417 15.1683C53.8351 15.8442 54.5462 16.5026 55.2747 17.1697C56.2403 16.485 57.1005 15.695 58.0661 15.0542L58.1714 15.1946L53.168 19.1623L50.3152 16.5903L49.3584 17.2926L49.2443 17.1346C49.4725 16.9502 49.6919 16.7659 49.9289 16.5991C50.022 16.5373 50.097 16.452 50.1464 16.3517C50.1957 16.2515 50.2176 16.14 50.2098 16.0285C50.2098 14.0711 50.2098 12.1136 50.2098 10.1561C50.1996 10.054 50.2222 9.95133 50.2743 9.86294C50.3264 9.77455 50.4053 9.70505 50.4995 9.66453C51.9918 8.8394 53.4577 7.98794 54.9324 7.14525L55.3011 6.94336L57.5833 10.9637ZM53.1153 8.62873H53.0539V14.0447L55.3011 12.3594L53.1153 8.62873Z" fill="white"/>
<path d="M73.3047 42.2834L74.3669 41.5548C74.4029 41.5862 74.4353 41.6215 74.4634 41.6601L71.3121 44.2935L68.9245 42.1342C68.7402 42.3097 68.5646 42.4941 68.3803 42.6521C68.2575 42.7326 68.1283 42.8031 67.9941 42.8627C68.0514 42.7311 68.1251 42.6072 68.2135 42.494C68.4856 42.2307 68.7841 41.9937 69.0913 41.7304C69.1945 41.627 69.2568 41.4898 69.2669 41.3441C69.2669 39.5008 69.2669 37.6574 69.2669 35.814C69.2767 35.7144 69.2585 35.6141 69.2142 35.5244L68.3364 34.2867L67.4586 35.024L67.3621 34.9626C67.3846 34.8813 67.4202 34.8042 67.4674 34.7343L70.3729 32.101L71.9793 34.0935L73.8841 32.2238C74.9813 32.9612 75.3412 32.9524 76.2366 32.2238C76.3152 32.7428 76.2514 33.2733 76.052 33.7587C75.8525 34.2442 75.5249 34.6664 75.1042 34.9801C74.2264 35.6121 73.6032 35.5156 72.2075 34.5061C72.2075 34.629 72.2075 34.7343 72.2075 34.8397C72.2075 36.8762 72.2075 38.9126 72.2075 40.9842C72.1988 41.0952 72.2185 41.2065 72.2645 41.3078C72.3106 41.4092 72.3815 41.4971 72.4708 41.5636C72.7166 41.7567 73.0063 42.0288 73.3047 42.2834Z" fill="white"/>
<path d="M86.8315 31.9518C86.6033 33.1544 86.2873 34.2428 85.2252 34.8573C84.163 35.4717 83.0658 35.0241 82.0914 34.4008C81.9246 34.5501 81.8544 34.6729 82.0036 34.8924L86.6384 41.9148C86.664 41.9528 86.6934 41.988 86.7262 42.0201L87.6742 41.2125L87.7795 41.2564C87.7377 41.3549 87.6815 41.4466 87.6128 41.5285L84.479 44.2585C84.4088 44.1531 84.3298 44.0566 84.2684 43.9512L80.1691 37.4204C80.0851 37.3245 80.0388 37.2012 80.0388 37.0737C80.0388 36.9462 80.0851 36.823 80.1691 36.727C81.1961 35.2611 82.2055 33.7864 83.215 32.338L83.452 32.0044C83.6554 32.2525 83.9113 32.4523 84.2012 32.5895C84.4911 32.7267 84.8079 32.7979 85.1286 32.7979C85.4493 32.7979 85.7661 32.7267 86.056 32.5895C86.3459 32.4523 86.6018 32.2525 86.8052 32.0044L86.8315 31.9518Z" fill="white"/>
<path d="M31.5216 60.8664L30.7404 61.5247H30.6526C30.6526 61.4545 30.6526 61.3492 30.714 61.3141C31.5918 60.5065 32.5311 59.7165 33.4703 58.8914L35.5682 61.3316L36.5953 60.4538C36.6034 60.5532 36.6034 60.653 36.5953 60.7523C36.5687 60.7981 36.5289 60.8348 36.4812 60.8576C35.7262 61.2614 35.6034 61.9198 35.6736 62.701C35.7262 64.2284 35.6736 65.7645 35.6736 67.2919C35.6817 67.4737 35.7461 67.6486 35.8579 67.7922C36.1564 68.1784 36.4987 68.5383 36.8235 68.9158C37.1834 68.7578 37.3589 68.3189 37.754 68.2487L37.833 68.354L34.9275 70.9874L32.9261 68.6876L31.9956 69.4512L31.8639 69.302C32.0746 69.1177 32.2677 68.9246 32.4872 68.7578C32.5844 68.6917 32.6619 68.6005 32.7114 68.4938C32.7609 68.3871 32.7805 68.269 32.7681 68.1521C32.7681 66.3351 32.7681 64.518 32.7681 62.701C32.7526 62.4949 32.6796 62.2972 32.5574 62.1304C32.2326 61.674 31.8727 61.279 31.5216 60.8664Z" fill="white"/>
<path d="M33.1982 58.233L31.4426 56.2579L33.6371 54.239L35.4366 56.2228L33.1982 58.233Z" fill="white"/>
</g>
<defs>
<clipPath id="clip0_2_1305">
<rect width="87.7795" height="71.83" fill="white"/>
</clipPath>
</defs>
</svg>
