<svg width="100" height="13" viewBox="0 0 100 13" fill="none" xmlns="http://www.w3.org/2000/svg">
<g clip-path="url(#clip0_2_1368)">
<path d="M6.84 3.41992V12.7199H3.42V3.41992H0V0.419922H10.26V3.41992H6.84Z" fill="white"/>
<path d="M18.25 9.0001H12.81C12.8019 9.20574 12.8379 9.41074 12.9157 9.60128C12.9935 9.79181 13.1112 9.96347 13.261 10.1047C13.4107 10.2459 13.5889 10.3533 13.7837 10.4198C13.9785 10.4863 14.1852 10.5103 14.39 10.4901C15.2158 10.4815 16.0266 10.2685 16.75 9.8701L17.98 11.8701C16.8627 12.6112 15.5508 13.0045 14.21 13.0001C11.4 13.0001 9.91003 11.0701 9.91003 8.1801C9.91003 5.0201 11.67 3.3501 14.12 3.3501C16.57 3.3501 18.25 5.0001 18.25 8.4201V9.0001ZM14 5.6101C13.29 5.6101 12.85 6.1401 12.77 7.0201H15.4C15.26 6.1401 15 5.6101 14 5.6101Z" fill="white"/>
<path d="M24.1199 12.8901C21.3999 12.8901 19.8199 11.1401 19.8199 8.07011C19.8199 5.26011 21.2299 3.33011 24.2099 3.33011C24.9368 3.30238 25.656 3.48722 26.2794 3.86198C26.9028 4.23675 27.4035 4.78518 27.7199 5.44011L25.5299 7.11011C25.0899 6.32011 24.8199 5.88011 24.1199 5.88011C23.4199 5.88011 22.8899 6.67011 22.8899 8.16011C22.8899 9.65011 23.3299 10.3501 24.2099 10.3501C24.8199 10.3501 25.2599 10.0001 25.7899 9.12011L27.7899 10.7001C27.4414 11.3695 26.9136 11.9288 26.2655 12.3156C25.6174 12.7023 24.8746 12.9012 24.1199 12.8901V12.8901Z" fill="white"/>
<path d="M34.8201 12.72V7.46C34.8201 6.23 34.3901 5.96 33.8201 5.96C33.2501 5.96 32.7701 6.32 32.7701 7.46V12.72H29.5601V1.23L32.7201 0V4.21C33.3645 3.68853 34.1711 3.40904 35.0001 3.42C37.0001 3.42 38.0001 4.74 38.0001 7.19V12.72H34.8201Z" fill="white"/>
<path d="M45.61 12.89C41.93 12.89 40 10.18 40 6.58001C40 2.63001 42.28 0.26001 45.61 0.26001C48.61 0.26001 49.82 1.58001 50.7 3.86001L47.63 5.09001C47.19 3.95001 46.75 3.25001 45.63 3.25001C44.23 3.25001 43.63 4.65001 43.63 6.58001C43.63 8.51001 44.24 9.91001 45.73 9.91001C46.73 9.91001 47.22 9.30001 47.92 8.16001L50.82 9.65001C50.3795 10.6524 49.6462 11.4981 48.7164 12.0764C47.7867 12.6546 46.7038 12.9382 45.61 12.89V12.89Z" fill="white"/>
<path d="M58.51 6.99989C58.3252 6.77413 58.0956 6.58914 57.8357 6.4566C57.5758 6.32407 57.2913 6.24688 57 6.22989C56.21 6.22989 55.77 6.57989 55.77 7.71989V12.7199H52.63V3.50989H55.79V4.20989C56.0338 3.9382 56.331 3.7198 56.6631 3.56837C56.9952 3.41694 57.355 3.33575 57.72 3.32989C58.2378 3.3227 58.7495 3.44289 59.21 3.67989L58.51 6.99989Z" fill="white"/>
<path d="M66 12.72V12.11C65.3607 12.6396 64.5497 12.9171 63.72 12.89C61.72 12.89 60.72 11.58 60.72 9.12001V3.51001H63.88V8.77001C63.88 10 64.32 10.26 64.88 10.26C65.44 10.26 65.88 9.91001 65.88 8.77001V3.51001H69.04V12.72H66Z" fill="white"/>
<path d="M76.75 12.7199V7.4599C76.75 6.2299 76.32 5.9599 75.75 5.9599C75.18 5.9599 74.75 6.3199 74.75 7.4599V12.7199H71.49V3.5099H74.65V4.1199C75.2944 3.59843 76.1011 3.31894 76.93 3.3299C78.93 3.3299 79.93 4.6499 79.93 7.1099V12.7199H76.75Z" fill="white"/>
<path d="M86.05 12.8901C83.33 12.8901 81.75 11.1401 81.75 8.07011C81.75 5.26011 83.16 3.33011 86.14 3.33011C86.8669 3.30238 87.586 3.48722 88.2095 3.86198C88.8329 4.23675 89.3335 4.78518 89.65 5.44011L87.46 7.11011C87.02 6.32011 86.75 5.88011 86.05 5.88011C85.35 5.88011 84.82 6.67011 84.82 8.16011C84.82 9.65011 85.26 10.3501 86.14 10.3501C86.75 10.3501 87.14 10.0001 87.72 9.12011L89.72 10.7001C88.68 12.2801 87.72 12.8901 86.05 12.8901Z" fill="white"/>
<path d="M96.84 12.72V7.46C96.84 6.23 96.4 5.96 95.84 5.96C95.28 5.96 94.79 6.32 94.79 7.46V12.72H91.58V1.23L94.74 0V4.21C95.3783 3.69145 96.1776 3.41203 97 3.42C99 3.42 100 4.74 100 7.19V12.72H96.84Z" fill="white"/>
</g>
<defs>
<clipPath id="clip0_2_1368">
<rect width="100" height="12.98" fill="white"/>
</clipPath>
</defs>
</svg>
