<svg width="89" height="68" viewBox="0 0 89 68" fill="none" xmlns="http://www.w3.org/2000/svg">
<g clip-path="url(#clip0_2_1357)">
<path d="M0 49.7043V54.0994H5.12754V67.2757H9.52258V54.0994H14.6413V49.7043H0Z" fill="white"/>
<path d="M27.0939 63.1191C26.4974 63.375 25.8543 63.5042 25.2053 63.4986C24.5475 63.5058 23.8954 63.3766 23.2902 63.1191C22.7435 62.8757 22.2536 62.521 21.8516 62.0777C21.4494 61.6249 21.1352 61.1012 20.925 60.5332C20.4779 59.2805 20.4779 57.9117 20.925 56.6589C21.1352 56.091 21.4494 55.5672 21.8516 55.1145C22.2516 54.6712 22.7422 54.319 23.2902 54.0819C23.8934 53.817 24.5465 53.6846 25.2053 53.6936C25.8554 53.6865 26.4994 53.8189 27.0939 54.0819C27.6393 54.3236 28.129 54.6751 28.5324 55.1145C28.9346 55.5672 29.2489 56.091 29.4591 56.6589C29.8942 57.9137 29.8942 59.2784 29.4591 60.5332C29.2489 61.1012 28.9346 61.6249 28.5324 62.0777C28.127 62.5171 27.6379 62.8711 27.0939 63.1191V63.1191ZM31.8508 52.0697C30.9957 51.2648 29.9913 50.6352 28.8943 50.2164C26.5102 49.3221 23.8827 49.3221 21.4986 50.2164C20.4005 50.6384 19.3938 51.2676 18.5333 52.0697C17.6921 52.8759 17.0253 53.8461 16.5741 54.9203C15.633 57.2622 15.633 59.877 16.5741 62.2189C17.0221 63.3026 17.6891 64.2821 18.5333 65.096C19.3889 65.9001 20.3932 66.5297 21.4898 66.9493C23.8739 67.8436 26.5013 67.8436 28.8855 66.9493C29.9825 66.5305 30.9869 65.9008 31.842 65.096C32.6749 64.2865 33.3354 63.3169 33.7835 62.2454C34.7246 59.9035 34.7246 57.2886 33.7835 54.9468C33.3411 53.8666 32.6835 52.8877 31.8508 52.0697" fill="white"/>
<path d="M49.2896 58.8474C49.294 59.4712 49.1833 60.0905 48.9631 60.6742C48.7606 61.2461 48.4397 61.7688 48.0215 62.2083C47.6033 62.6477 47.0972 62.9941 46.5361 63.2248C45.8918 63.4983 45.1973 63.6336 44.4975 63.6219H41.7351V54.0993H44.5239C45.2378 54.0865 45.9475 54.2093 46.6156 54.4612C47.1776 54.6838 47.6838 55.0272 48.0982 55.4673C48.4931 55.9009 48.7936 56.4118 48.9808 56.9676C49.1874 57.5725 49.2889 58.2083 49.2808 58.8474H49.2896ZM51.5136 52.0695C50.6502 51.2883 49.6389 50.6881 48.5395 50.3044C47.3183 49.8875 46.0349 49.6816 44.7446 49.6955H37.3401V67.2756H44.7446C46.0343 67.2903 47.3172 67.0874 48.5395 66.6755C49.6495 66.2977 50.6706 65.6971 51.5401 64.9104C52.3847 64.1397 53.0556 63.1981 53.5082 62.1481C54.4616 59.7903 54.4616 57.1543 53.5082 54.7965C53.0488 53.7538 52.3682 52.8233 51.5136 52.0695" fill="white"/>
<path d="M65.6872 60.6919H61.557L63.6221 54.5848L65.6872 60.6919ZM66.4992 49.7043H60.745L54.179 67.1521V67.2757H59.4742L60.3567 65.0781H67.0199L67.9024 67.2757H73.1976L66.5168 49.7661L66.4992 49.7043Z" fill="white"/>
<path d="M83.2585 49.7043L79.8078 56.0233L76.3129 49.7043H71.3442L77.6103 60.1977V67.2757H82.0053V60.1977L88.2537 49.7043H83.2585Z" fill="white"/>
<path d="M11.8437 41.6468C12.4108 33.4298 16.0812 25.7359 22.1109 20.1249C28.1406 14.5139 36.0783 11.4057 44.3148 11.4304C52.5513 11.4551 60.4703 14.6109 66.4662 20.2579C72.4621 25.905 76.0864 33.6207 76.6042 41.841C76.6042 42.5029 76.666 43.1736 76.666 43.8444H88.0243C88.0243 43.2442 88.0243 42.6441 88.0243 42.0793C87.7344 30.7031 83.0284 19.8864 74.9027 11.9194C66.7769 3.95237 55.8694 -0.539364 44.4898 -0.604745C33.1101 -0.670125 22.1518 3.69598 13.935 11.5691C5.71828 19.4422 0.888284 30.2042 0.467747 41.5762C0.467747 42.3264 0.414795 43.0854 0.414795 43.8444H11.7642C11.7642 43.1118 11.7642 42.3705 11.8437 41.6468Z" fill="white"/>
<path d="M26.4762 41.7793C26.9806 37.4185 29.0748 33.3966 32.3582 30.4827C35.6417 27.5689 39.884 25.9676 44.2739 25.9851C48.6638 26.0025 52.8932 27.6376 56.1534 30.5774C59.4135 33.5173 61.4756 37.5558 61.9453 41.9205C62.0133 42.5595 62.0457 43.2019 62.0424 43.8445H73.4183C73.4183 43.2267 73.4183 42.6001 73.3654 41.9911C72.8309 34.6379 69.5351 27.7589 64.1392 22.7349C58.7434 17.7109 51.647 14.9137 44.2744 14.9048C36.9018 14.8959 29.7986 17.6759 24.3907 22.6868C18.9827 27.6977 15.6701 34.5686 15.1179 41.9205C15.0032 42.556 15.0032 43.2443 15.0032 43.8445H26.3703C26.3654 43.1546 26.4008 42.4651 26.4762 41.7793" fill="white"/>
<path d="M44.2151 29.2295C40.8201 29.2319 37.5318 30.4161 34.9148 32.5789C32.2979 34.7417 30.5155 37.7481 29.8739 41.082C29.7034 41.9929 29.6177 42.9176 29.6179 43.8443H58.8211C58.8164 39.9712 57.2763 36.2579 54.5385 33.5183C51.8006 30.7788 48.0882 29.2365 44.2151 29.2295Z" fill="white"/>
</g>
<defs>
<clipPath id="clip0_2_1357">
<rect width="88.2537" height="67.62" fill="white"/>
</clipPath>
</defs>
</svg>
