<svg width="18" height="16" viewBox="0 0 18 16" fill="none" xmlns="http://www.w3.org/2000/svg">
<g clip-path="url(#clip0_2_173)">
<path fill-rule="evenodd" clip-rule="evenodd" d="M18 2.10581C17.3386 2.407 16.6265 2.61069 15.8796 2.70169C16.6424 2.23366 17.2277 1.49151 17.5034 0.607437C16.7892 1.04081 16 1.35608 15.1569 1.52509C14.4849 0.789448 13.5246 0.330078 12.4617 0.330078C10.4237 0.330078 8.7702 2.02563 8.7702 4.11664C8.7702 4.4135 8.8019 4.70169 8.86529 4.97905C5.79609 4.82087 3.07554 3.31491 1.25304 1.0213C0.935023 1.58251 0.753296 2.23365 0.753296 2.92705C0.753296 4.24015 1.40518 5.39942 2.3962 6.07872C1.79187 6.06031 1.22134 5.88804 0.72266 5.60635V5.65294C0.72266 7.48826 1.99577 9.01913 3.68621 9.36583C3.37665 9.45467 3.05018 9.49909 2.71315 9.49909C2.47544 9.49909 2.243 9.47634 2.01796 9.43192C2.48811 10.9357 3.85102 12.0311 5.46751 12.0603C4.2039 13.0766 2.61067 13.6822 0.881138 13.6822C0.583198 13.6822 0.288431 13.6649 0 13.6302C1.63444 14.7028 3.57633 15.3301 5.66085 15.3301C12.4543 15.3301 16.168 9.56085 16.168 4.55651C16.168 4.39183 16.1648 4.22715 16.1585 4.06572C16.8801 3.53159 17.5066 2.86529 18 2.10581Z" fill="white"/>
</g>
<defs>
<clipPath id="clip0_2_173">
<rect width="18" height="15" fill="white" transform="translate(0 0.330078)"/>
</clipPath>
</defs>
</svg>
