<svg width="117" height="35" viewBox="0 0 117 35" fill="none" xmlns="http://www.w3.org/2000/svg">
<g clip-path="url(#clip0_2_154)">
<path d="M39.8423 8.76849H55.4562V12.4712H44.1752V17.3355H54.0642V20.9573H44.1752V26.8384H55.547V30.5137H39.9331L39.8423 8.76849Z" fill="white"/>
<path d="M55.4818 22.7219C55.4818 17.8571 58.1752 14.489 61.9876 14.489C62.8385 14.4498 63.6844 14.6427 64.4387 15.0489C65.193 15.4551 65.8285 16.0594 66.2812 16.8004H66.3727V8.78156H70.393V30.5267H66.4896V28.415C66.0208 29.2089 65.3538 29.8588 64.5575 30.2983C63.7612 30.7378 62.8648 30.9511 61.9615 30.9144C58.0841 30.9678 55.4818 27.7738 55.4818 22.7219ZM66.4375 22.8146C66.4375 19.8342 65.4877 17.8302 62.9114 17.8302C60.6864 17.8302 59.5676 19.8351 59.5676 22.7219C59.5676 25.6087 60.7256 27.5066 62.7945 27.5066C65.1886 27.5066 66.4896 25.7415 66.4896 22.8146H66.4375Z" fill="white"/>
<path d="M72.1229 8.76849H87.3073V12.5104H76.4425V17.7362H85.6548V21.5055H76.4425V30.5137H72.149L72.1229 8.76849Z" fill="white"/>
<path d="M86.5782 22.6945C86.5782 18.0702 89.6233 14.489 94.0732 14.489C98.9526 14.489 101.555 18.3113 101.555 23.8443H90.5472C90.8334 26.25 92.1476 27.7337 94.4506 27.7337C95.0757 27.7927 95.7017 27.6371 96.2315 27.2912C96.7612 26.9454 97.1649 26.428 97.3782 25.8216H101.346C100.787 28.5881 98.3925 30.9274 94.476 30.9274C89.4145 30.9675 86.5782 27.3454 86.5782 22.6945ZM90.5986 21.0239H97.3522C97.3591 20.5847 97.2801 20.1485 97.1209 19.7409C96.9617 19.3333 96.7251 18.9635 96.4246 18.6511C96.1241 18.3387 95.7661 18.0899 95.3712 17.9215C94.9764 17.7531 94.5529 17.6678 94.1253 17.6696C91.9914 17.7231 90.9629 18.979 90.5986 21.0239Z" fill="white"/>
<path d="M102.101 22.7219C102.101 17.8571 104.794 14.489 108.607 14.489C109.457 14.4498 110.303 14.6427 111.057 15.0489C111.811 15.4551 112.448 16.0594 112.9 16.8004H112.992V8.78156H117.012V30.5267H113.109V28.415C112.638 29.21 111.968 29.8615 111.17 30.3009C110.371 30.7404 109.472 30.9521 108.567 30.9144C104.703 30.9678 102.101 27.7738 102.101 22.7219ZM113.056 22.8146C113.056 19.8342 112.107 17.8302 109.53 17.8302C107.305 17.8302 106.186 19.8351 106.186 22.7219C106.186 25.6087 107.332 27.5066 109.413 27.5066C111.808 27.5066 113.056 25.7415 113.056 22.8146Z" fill="white"/>
<path d="M25.8657 31.8493C23.2933 32.3015 20.6503 32.0349 18.2125 31.078C15.7747 30.121 13.6317 28.5085 12.0085 26.4094C11.8758 25.4044 11.9069 24.384 12.1 23.3893C12.2107 22.8359 12.3714 22.2945 12.5809 21.7722C13.596 24.2358 15.3821 26.281 17.656 27.5854C18.751 28.2083 19.9307 28.6588 21.156 28.9219C22.4607 29.2093 23.8053 29.2498 25.1243 29.0419L24.7863 27.7055C27.3548 26.5016 29.5514 24.5958 31.137 22.1964C32.7226 19.797 33.6358 16.9968 33.7768 14.1005L31.3308 13.9805C30.9493 16.6306 29.8839 19.1277 28.2456 21.2123C26.6074 23.2969 24.4559 24.8931 22.0143 25.8352C21.0431 25.6458 20.1076 25.2977 19.243 24.8054C18.7837 24.5228 18.3485 24.2013 17.9419 23.8435C20.538 23.607 22.9829 22.4878 24.8898 20.6628C25.8061 19.7938 26.5912 18.7887 27.2189 17.6819C27.8659 16.4857 28.3062 15.1836 28.5201 13.833H27.2189C26.8993 10.9523 25.8156 8.21725 24.0855 5.92635C22.3554 3.63545 20.0452 1.8771 17.4082 0.842773L16.5365 3.18161C18.8726 4.376 20.8549 6.19083 22.278 8.43746C23.7011 10.6841 24.5134 13.2801 24.63 15.9578C24.1589 16.8441 23.5528 17.6476 22.8345 18.3371C22.4354 18.7199 21.9994 19.0599 21.5334 19.3525C22.1168 16.7455 21.837 14.0138 20.7392 11.5881C20.219 10.4205 19.5254 9.34209 18.6833 8.39309C17.7935 7.37239 16.7315 6.52681 15.5479 5.89502L15.0797 7.15058C12.3141 6.57421 9.44721 6.78904 6.79244 7.77184C4.13767 8.75463 1.79661 10.4675 0.0249023 12.7236L1.92454 14.3015C3.74376 12.3805 6.03133 10.9946 8.5485 10.2895C11.0657 9.58434 13.7204 9.58573 16.2373 10.2921C17.3195 11.4292 18.0796 12.8468 18.4361 14.3942C16.1993 13.0196 13.5821 12.4465 10.9939 12.7641C9.75382 12.9148 8.54274 13.2569 7.40236 13.7795C6.18093 14.339 5.06651 15.117 4.11071 16.0778L5.13868 16.921C3.74973 19.4461 3.06251 22.3138 3.152 25.2126C3.24148 28.1114 4.10441 30.9297 5.64631 33.3594L7.68889 32.0229C6.47963 29.65 5.91193 26.987 6.04466 24.3121C6.17739 21.6372 7.00579 19.0483 8.44367 16.8139C9.33271 16.374 10.2869 16.0896 11.2671 15.9721C11.8167 15.9185 12.37 15.9185 12.9196 15.9721C10.9553 17.7309 9.61425 20.1087 9.10695 22.7341C8.86231 23.9921 8.80542 25.2814 8.93795 26.5569C9.07621 27.9255 9.45519 29.2561 10.0568 30.4854L11.1502 29.7506C13.0572 31.887 15.4982 33.4437 18.2081 34.2521C20.9179 35.0605 23.7918 35.089 26.5163 34.3343L25.8657 31.8493ZM14.6108 18.4845L12.9583 15.8116C14.1944 15.9124 15.4027 16.2423 16.5238 16.7865L18.4234 14.3681C18.7113 15.6062 18.7774 16.888 18.6185 18.1504L21.4419 19.2598C20.3864 19.9181 19.2225 20.3711 18.0073 20.5963L17.851 23.696C16.9027 22.8774 16.1161 21.8789 15.5346 20.7555L12.607 21.5582C13.0946 20.4369 13.7732 19.4144 14.6108 18.5381V18.4845Z" fill="#C10230"/>
</g>
<defs>
<clipPath id="clip0_2_154">
<rect width="117" height="34" fill="white" transform="translate(0 0.830078)"/>
</clipPath>
</defs>
</svg>
