<svg width="86" height="49" viewBox="0 0 86 49" fill="none" xmlns="http://www.w3.org/2000/svg">
<g clip-path="url(#clip0_2_1330)">
<path d="M82.4816 4.9024C82.4816 2.95348 82.9624 2.32673 84.3447 1.97472L85.8558 1.53686V0.300537H71.6209V1.53686L73.338 1.96614C74.7117 2.31815 75.4844 2.8247 75.4844 4.82513V38.3089C75.4844 42.9708 75.0551 46.7313 71.6209 46.7313C69.4144 46.7313 67.7574 45.0142 67.8346 43.7264C68.0407 41.58 71.6209 41.7088 71.8956 38.223C71.9735 37.7886 71.9611 37.3428 71.8591 36.9134C71.757 36.484 71.5675 36.0803 71.3025 35.7274C71.0374 35.3746 70.7024 35.0801 70.3185 34.8625C69.9346 34.6448 69.5099 34.5087 69.0709 34.4625C66.9246 34.1792 64.3231 35.9993 64.2544 39.6139C64.1858 44.2844 67.2079 48.5257 72.3678 48.5257C78.0772 48.5257 82.4816 44.6278 82.4816 37.1756V4.9024Z" fill="white"/>
<path d="M62.6747 35.8104C62.6747 21.5412 47.2206 17.7807 47.2206 7.40076C47.2206 5.16851 48.0792 1.82014 51.5134 1.82014C56.4673 1.82014 58.3218 8.30225 59.146 16.1666H60.4338V0.283324H59.6268C59.2834 1.81156 58.6652 2.50699 57.7723 2.50699C56.0981 2.50699 55.2739 0 51.5134 0C45.6495 0 41.64 4.97105 41.64 11.4446C41.64 23.2068 57.094 28.1521 57.094 39.0128C57.094 43.9581 54.8275 46.7399 51.7281 46.7399C47.1176 46.7399 44.0955 41.2451 43.2713 32.402H41.9834V48.2853H42.842C43.5288 45.9843 44.4217 45.7783 45.1773 45.7783C46.4651 45.7783 47.8646 48.56 51.8483 48.56C57.9698 48.56 62.6747 43.2026 62.6747 35.819" fill="white"/>
<path d="M33.5696 0.437988V1.71724L35.012 1.98339C37.0811 2.41267 37.5876 3.70051 36.6003 8.85185L31.5863 33.7844L26.4865 7.3322C25.9284 4.61916 25.6279 2.3955 27.8602 1.96622L29.3712 1.71724V0.437988H16.0979V1.71724L16.9565 1.92329C18.3388 2.2753 18.5448 3.1081 19.1029 5.75246L20.3907 12.0886L16.3984 33.5869L11.1612 7.3322C10.5259 4.48179 10.3027 2.32681 12.5178 1.90612L13.548 1.71724V0.437988H0V1.71724L1.28784 2.06066C2.57567 2.3955 3.23676 3.02225 4.06097 6.86858L12.8011 48.5601H15.6172L21.5498 16.7935L28.0662 48.5601H30.5389L38.9356 8.20793C39.7941 3.95807 40.3093 2.49853 41.9663 2.07783L43.2541 1.71724V0.437988H33.5696Z" fill="white"/>
</g>
<defs>
<clipPath id="clip0_2_1330">
<rect width="85.8557" height="48.56" fill="white"/>
</clipPath>
</defs>
</svg>
