<svg width="17" height="17" viewBox="0 0 17 17" fill="none" xmlns="http://www.w3.org/2000/svg">
<rect width="16" height="16" rx="8" transform="matrix(-1 0 0 1 16.4993 0.153809)" fill="#F2F2F2"/>
<path d="M5.95483 7.18983L8.09377 10.4576C8.13253 10.5168 8.1908 10.5664 8.26226 10.6009C8.33371 10.6355 8.41564 10.6538 8.49915 10.6538C8.58267 10.6538 8.66459 10.6355 8.73605 10.6009C8.8075 10.5664 8.86577 10.5168 8.90453 10.4576L11.0437 7.18983C11.0802 7.13403 11.0982 7.07162 11.0957 7.00865C11.0933 6.94568 11.0706 6.88427 11.0298 6.83038C10.9891 6.77648 10.9316 6.73191 10.863 6.70098C10.7944 6.67004 10.717 6.6538 10.6382 6.65381L6.36033 6.65381C6.28158 6.6538 6.20416 6.67004 6.13555 6.70097C6.06695 6.73191 6.00948 6.77648 5.96871 6.83038C5.92793 6.88427 5.90523 6.94568 5.9028 7.00865C5.90037 7.07162 5.91829 7.13403 5.95483 7.18983Z" fill="#242424"/>
</svg>
