<svg width="66" height="274" viewBox="0 0 66 274" fill="none" xmlns="http://www.w3.org/2000/svg">
<path fill-rule="evenodd" clip-rule="evenodd" d="M-158.512 86.1821C-139.267 61.7223 -125.042 32.1443 -98.5282 17.6817C-69.4825 1.83786 -36.5829 -3.22328 -8.17139 4.17466C21.0179 11.7751 45.7612 31.0891 58.5161 58.5736C70.7472 84.9296 63.0466 117.989 59.2897 149.542C55.4835 181.509 58.9919 217.275 36.5735 242.863C14.3133 268.27 -21.4481 263.91 -51.3565 275.829C-82.8846 288.394 -113.541 322.333 -143.184 314.5C-172.792 306.676 -178.008 267.489 -190.241 239.131C-201.092 213.975 -216.216 189.092 -210.066 159.446C-204.096 130.669 -177.455 110.259 -158.512 86.1821Z" stroke="#C10230" stroke-dasharray="2 7"/>
</svg>
