<svg width="14" height="19" viewBox="0 0 14 19" fill="none" xmlns="http://www.w3.org/2000/svg">
<g clip-path="url(#clip0_2_281)">
<path d="M1.13493 9.7404L7.08459 16.4955C7.13849 16.5517 7.2032 16.5965 7.27483 16.627C7.34646 16.6576 7.42353 16.6733 7.5014 16.6733C7.57928 16.6733 7.65635 16.6576 7.72798 16.627C7.79962 16.5965 7.86432 16.5517 7.91822 16.4955L13.8652 9.7404C13.9127 9.68681 13.949 9.62421 13.9719 9.55632C13.9948 9.48842 14.0038 9.41661 13.9984 9.34517C13.993 9.27372 13.9733 9.20409 13.9405 9.14041C13.9076 9.07673 13.8623 9.0203 13.8072 8.97448L12.8051 8.13111C12.6934 8.0369 12.5491 7.9904 12.4034 8.00165C12.2576 8.0129 12.1222 8.08099 12.0262 8.19123L7.60351 13.3116C7.5908 13.3264 7.57504 13.3382 7.55733 13.3464C7.53961 13.3545 7.52035 13.3587 7.50086 13.3587C7.48137 13.3587 7.46211 13.3545 7.4444 13.3464C7.42668 13.3382 7.41093 13.3264 7.39822 13.3116L2.97388 8.19069C2.87784 8.08096 2.74235 8.0136 2.59688 8.00328C2.52476 7.99685 2.45208 8.00494 2.38314 8.02708C2.3142 8.04923 2.2504 8.08497 2.19551 8.13219L1.19288 8.97448C1.13748 9.02022 1.09186 9.07665 1.05873 9.14039C1.0256 9.20414 1.00564 9.2739 1.00005 9.34553C0.994629 9.41705 1.00379 9.48893 1.02697 9.5568C1.05016 9.62468 1.08688 9.68714 1.13493 9.7404V9.7404Z" fill="#5298C9"/>
</g>
<defs>
<clipPath id="clip0_2_281">
<rect width="13.0014" height="18.6733" fill="white" transform="translate(0.998535)"/>
</clipPath>
</defs>
</svg>
