<svg width="126" height="319" viewBox="0 0 126 319" fill="none" xmlns="http://www.w3.org/2000/svg">
<path fill-rule="evenodd" clip-rule="evenodd" d="M-132.573 244.532C-152.189 215.278 -179.055 189.635 -185.392 156.057C-192.334 119.272 -186.339 82.112 -168.504 54.1357C-150.181 25.3935 -120.805 5.52951 -86.8096 1.41835C-54.2103 -2.52404 -21.3316 17.3183 11.2982 32.3915C44.3567 47.6627 84.0446 56.3938 103.77 89.4559C123.357 122.285 106.234 159.23 108.655 195.57C111.206 233.878 137.05 278.722 118.319 307.871C99.6103 336.986 55.6502 328.896 20.8967 332.14C-9.93217 335.017 -41.9523 342.587 -71.7003 325.605C-100.575 309.122 -113.264 273.328 -132.573 244.532Z" fill="white"/>
</svg>
