<svg width="45" height="44" viewBox="0 0 45 44" fill="none" xmlns="http://www.w3.org/2000/svg">
<g clip-path="url(#clip0_2_230)">
<path d="M41.2772 18.3828C41.2288 18.3325 41.1925 18.2719 41.1709 18.2055C41.1493 18.1391 41.143 18.0687 41.1525 17.9996C41.1624 17.9308 41.1878 17.8651 41.2269 17.8076C41.266 17.7501 41.3177 17.7023 41.3781 17.6678L42.8447 16.8189C43.1577 16.6384 43.4321 16.3979 43.6521 16.1113C43.8722 15.8247 44.0336 15.4976 44.1273 15.1486C44.2209 14.7996 44.2449 14.4356 44.1978 14.0773C44.1508 13.7191 44.0336 13.3736 43.853 13.0606C43.6725 12.7476 43.432 12.4733 43.1454 12.2532C42.8588 12.0332 42.5317 11.8717 42.1827 11.7781C41.8337 11.6844 41.4697 11.6605 41.1114 11.7075C40.7532 11.7546 40.4077 11.8717 40.0947 12.0523L38.1422 13.1798C38.078 13.2166 38.0059 13.2373 37.932 13.2402C37.8581 13.243 37.7846 13.228 37.7178 13.1963C37.6509 13.1646 37.5928 13.1172 37.5482 13.0581C37.5037 12.999 37.4741 12.9301 37.462 12.8571L36.7287 8.48827C36.5179 7.20261 35.8562 6.034 34.8622 5.19181C33.8681 4.34962 32.6067 3.88888 31.3039 3.89211H13.6892C12.3858 3.88902 11.124 4.35028 10.1299 5.19321C9.13577 6.03614 8.47442 7.2056 8.26438 8.49194L7.53105 12.8608C7.51868 12.9338 7.48886 13.0028 7.44414 13.0618C7.39941 13.1208 7.3411 13.1682 7.27415 13.1999C7.2072 13.2315 7.13359 13.2466 7.05959 13.2437C6.98558 13.2409 6.91335 13.2202 6.84905 13.1834L4.90022 12.0559C4.26812 11.6913 3.51704 11.5926 2.81222 11.7817C2.10739 11.9708 1.50656 12.4322 1.14188 13.0643C0.77721 13.6964 0.678574 14.4474 0.867673 15.1523C1.05677 15.8571 1.51812 16.4579 2.15022 16.8226L3.61688 17.6714C3.67726 17.7059 3.72896 17.7537 3.76804 17.8113C3.80712 17.8688 3.83255 17.9344 3.84238 18.0033C3.85189 18.0724 3.84561 18.1428 3.82402 18.2092C3.80243 18.2755 3.76609 18.3361 3.71772 18.3864C2.24467 19.9061 1.41969 21.9387 1.41688 24.0551V27.7218C1.41987 28.6407 1.69979 29.5374 2.22013 30.2949C2.74046 31.0523 3.47703 31.6353 4.33372 31.9678C4.41951 32.0016 4.49317 32.0604 4.54515 32.1365C4.59713 32.2127 4.62502 32.3027 4.62522 32.3949V35.9718C4.62522 37.0658 5.05981 38.115 5.8334 38.8886C6.60699 39.6622 7.6562 40.0968 8.75022 40.0968C9.84423 40.0968 10.8934 39.6622 11.667 38.8886C12.4406 38.115 12.8752 37.0658 12.8752 35.9718V32.7634C12.8752 32.6419 12.9235 32.5253 13.0095 32.4393C13.0954 32.3534 13.212 32.3051 13.3335 32.3051H31.6669C31.7884 32.3051 31.905 32.3534 31.991 32.4393C32.0769 32.5253 32.1252 32.6419 32.1252 32.7634V35.9718C32.1252 37.0658 32.5598 38.115 33.3334 38.8886C34.107 39.6622 35.1562 40.0968 36.2502 40.0968C37.3442 40.0968 38.3934 39.6622 39.167 38.8886C39.9406 38.115 40.3752 37.0658 40.3752 35.9718V32.4023C40.3754 32.3101 40.4033 32.22 40.4553 32.1439C40.5073 32.0677 40.5809 32.0089 40.6667 31.9751C41.5234 31.6426 42.26 31.0596 42.7803 30.3022C43.3006 29.5447 43.5806 28.648 43.5835 27.7291V24.0624C43.5821 21.9414 42.7549 19.9043 41.2772 18.3828ZM13.6892 7.56244H31.3112C31.7452 7.56264 32.165 7.71677 32.496 7.99742C32.827 8.27806 33.0477 8.66702 33.1189 9.09511L33.997 14.3623C34.0069 14.4272 34.0028 14.4934 33.9851 14.5566C33.9674 14.6198 33.9365 14.6786 33.8944 14.7289C33.8512 14.7797 33.7976 14.8204 33.7371 14.8482C33.6766 14.8761 33.6108 14.8904 33.5442 14.8903H11.4562C11.3896 14.8904 11.3238 14.876 11.2633 14.848C11.2028 14.8201 11.1492 14.7793 11.1061 14.7285C11.063 14.6778 11.0315 14.6182 11.0137 14.554C10.996 14.4898 10.9925 14.4225 11.0034 14.3568L11.8815 9.08961C11.9539 8.66253 12.1751 8.27486 12.506 7.99532C12.8369 7.71578 13.2561 7.56242 13.6892 7.56244ZM36.2502 27.7291C35.7063 27.7291 35.1746 27.5678 34.7224 27.2656C34.2702 26.9635 33.9177 26.534 33.7095 26.0315C33.5014 25.529 33.4469 24.9761 33.5531 24.4426C33.6592 23.9092 33.9211 23.4192 34.3057 23.0346C34.6903 22.65 35.1803 22.3881 35.7137 22.2819C36.2472 22.1758 36.8001 22.2303 37.3026 22.4384C37.8051 22.6466 38.2346 22.9991 38.5368 23.4513C38.8389 23.9035 39.0002 24.4352 39.0002 24.9791C39.0002 25.7085 38.7105 26.4079 38.1948 26.9236C37.679 27.4394 36.9796 27.7291 36.2502 27.7291ZM6.00022 24.9791C6.00022 24.4352 6.1615 23.9035 6.46367 23.4513C6.76585 22.9991 7.19534 22.6466 7.69784 22.4384C8.20033 22.2303 8.75327 22.1758 9.28671 22.2819C9.82016 22.3881 10.3102 22.65 10.6948 23.0346C11.0794 23.4192 11.3413 23.9092 11.4474 24.4426C11.5535 24.9761 11.499 25.529 11.2909 26.0315C11.0827 26.534 10.7303 26.9635 10.278 27.2656C9.8258 27.5678 9.29411 27.7291 8.75022 27.7291C8.02087 27.7291 7.3214 27.4394 6.80567 26.9236C6.28995 26.4079 6.00022 25.7085 6.00022 24.9791Z" fill="#C10230"/>
</g>
<defs>
<clipPath id="clip0_2_230">
<rect width="44" height="44" fill="white" transform="translate(0.5)"/>
</clipPath>
</defs>
</svg>
