<svg width="45" height="44" viewBox="0 0 45 44" fill="none" xmlns="http://www.w3.org/2000/svg">
<g clip-path="url(#clip0_2_254)">
<path d="M13.3334 21.9999C13.8196 21.9999 14.2859 21.8068 14.6297 21.4629C14.9735 21.1191 15.1667 20.6528 15.1667 20.1666C15.1667 19.6804 14.9735 19.214 14.6297 18.8702C14.2859 18.5264 13.8196 18.3333 13.3334 18.3333H6.00002C5.51379 18.3333 5.04747 18.5264 4.70366 18.8702C4.35984 19.214 4.16669 19.6804 4.16669 20.1666C4.16669 20.6528 4.35984 21.1191 4.70366 21.4629C5.04747 21.8068 5.51379 21.9999 6.00002 21.9999H6.45835C6.51861 21.9997 6.57832 22.0114 6.63404 22.0343C6.68975 22.0573 6.74038 22.091 6.78298 22.1336C6.82559 22.1762 6.85934 22.2269 6.88229 22.2826C6.90524 22.3383 6.91693 22.398 6.91669 22.4583V29.7916C6.91669 29.9131 6.8684 30.0297 6.78244 30.1157C6.69649 30.2016 6.57991 30.2499 6.45835 30.2499H6.00002C5.51379 30.2499 5.04747 30.4431 4.70366 30.7869C4.35984 31.1307 4.16669 31.597 4.16669 32.0833C4.16669 32.5695 4.35984 33.0358 4.70366 33.3796C5.04747 33.7234 5.51379 33.9166 6.00002 33.9166H13.3334C13.8196 33.9166 14.2859 33.7234 14.6297 33.3796C14.9735 33.0358 15.1667 32.5695 15.1667 32.0833C15.1667 31.597 14.9735 31.1307 14.6297 30.7869C14.2859 30.4431 13.8196 30.2499 13.3334 30.2499H12.875C12.7535 30.2499 12.6369 30.2016 12.5509 30.1157C12.465 30.0297 12.4167 29.9131 12.4167 29.7916V22.4583C12.4164 22.398 12.4281 22.3383 12.4511 22.2826C12.474 22.2269 12.5078 22.1762 12.5504 22.1336C12.593 22.091 12.6436 22.0573 12.6993 22.0343C12.7551 22.0114 12.8148 21.9997 12.875 21.9999H13.3334Z" fill="#C10230"/>
<path d="M26.1667 21.9999C26.6529 21.9999 27.1192 21.8068 27.463 21.4629C27.8068 21.1191 28 20.6528 28 20.1666C28 19.6804 27.8068 19.214 27.463 18.8702C27.1192 18.5264 26.6529 18.3333 26.1667 18.3333H18.8333C18.3471 18.3333 17.8808 18.5264 17.537 18.8702C17.1932 19.214 17 19.6804 17 20.1666C17 20.6528 17.1932 21.1191 17.537 21.4629C17.8808 21.8068 18.3471 21.9999 18.8333 21.9999H19.2917C19.3519 21.9997 19.4116 22.0114 19.4673 22.0343C19.5231 22.0573 19.5737 22.091 19.6163 22.1336C19.6589 22.1762 19.6927 22.2269 19.7156 22.2826C19.7386 22.3383 19.7502 22.398 19.75 22.4583V29.7916C19.75 29.9131 19.7017 30.0297 19.6158 30.1157C19.5298 30.2016 19.4132 30.2499 19.2917 30.2499H18.8333C18.3471 30.2499 17.8808 30.4431 17.537 30.7869C17.1932 31.1307 17 31.597 17 32.0833C17 32.5695 17.1932 33.0358 17.537 33.3796C17.8808 33.7234 18.3471 33.9166 18.8333 33.9166H26.1667C26.6529 33.9166 27.1192 33.7234 27.463 33.3796C27.8068 33.0358 28 32.5695 28 32.0833C28 31.597 27.8068 31.1307 27.463 30.7869C27.1192 30.4431 26.6529 30.2499 26.1667 30.2499H25.7083C25.5868 30.2499 25.4702 30.2016 25.3842 30.1157C25.2983 30.0297 25.25 29.9131 25.25 29.7916V22.4583C25.2498 22.398 25.2614 22.3383 25.2844 22.2826C25.3073 22.2269 25.3411 22.1762 25.3837 22.1336C25.4263 22.091 25.4769 22.0573 25.5327 22.0343C25.5884 22.0114 25.6481 21.9997 25.7083 21.9999H26.1667Z" fill="#C10230"/>
<path d="M39.9167 21.9999C40.4029 21.9999 40.8692 21.8068 41.213 21.4629C41.5568 21.1191 41.75 20.6528 41.75 20.1666C41.75 19.6804 41.5568 19.214 41.213 18.8702C40.8692 18.5264 40.4029 18.3333 39.9167 18.3333H32.5833C32.0971 18.3333 31.6308 18.5264 31.287 18.8702C30.9432 19.214 30.75 19.6804 30.75 20.1666C30.75 20.6528 30.9432 21.1191 31.287 21.4629C31.6308 21.8068 32.0971 21.9999 32.5833 21.9999H33.0417C33.1019 21.9997 33.1616 22.0114 33.2173 22.0343C33.2731 22.0573 33.3237 22.091 33.3663 22.1336C33.4089 22.1762 33.4427 22.2269 33.4656 22.2826C33.4886 22.3383 33.5002 22.398 33.5 22.4583V29.7916C33.5 29.9131 33.4517 30.0297 33.3658 30.1157C33.2798 30.2016 33.1632 30.2499 33.0417 30.2499H32.5833C32.0971 30.2499 31.6308 30.4431 31.287 30.7869C30.9432 31.1307 30.75 31.597 30.75 32.0833C30.75 32.5695 30.9432 33.0358 31.287 33.3796C31.6308 33.7234 32.0971 33.9166 32.5833 33.9166H39.9167C40.4029 33.9166 40.8692 33.7234 41.213 33.3796C41.5568 33.0358 41.75 32.5695 41.75 32.0833C41.75 31.597 41.5568 31.1307 41.213 30.7869C40.8692 30.4431 40.4029 30.2499 39.9167 30.2499H39.4583C39.3368 30.2499 39.2202 30.2016 39.1342 30.1157C39.0483 30.0297 39 29.9131 39 29.7916V22.4583C38.9998 22.398 39.0114 22.3383 39.0344 22.2826C39.0573 22.2269 39.0911 22.1762 39.1337 22.1336C39.1763 22.091 39.2269 22.0573 39.2827 22.0343C39.3384 22.0114 39.3981 21.9997 39.4583 21.9999H39.9167Z" fill="#C10230"/>
<path d="M4.99709 15.5835H40.1971C40.5515 15.591 40.9005 15.4955 41.2018 15.3088C41.5031 15.122 41.7438 14.8519 41.8948 14.5311C42.0426 14.1883 42.0675 13.8049 41.9653 13.4458C41.863 13.0867 41.64 12.7739 41.3338 12.5603L24.5844 0.366788C24.2642 0.140499 23.8837 0.0150585 23.4917 0.00656527C23.0997 -0.001928 22.7141 0.106914 22.3844 0.319121L3.92825 12.5126C3.60783 12.7144 3.36798 13.0218 3.25014 13.3816C3.13231 13.7415 3.1439 14.1312 3.28292 14.4835C3.42787 14.8157 3.66809 15.0976 3.9732 15.2934C4.27831 15.4892 4.63462 15.5901 4.99709 15.5835Z" fill="#C10230"/>
<path d="M44.3458 42.5756L40.6791 37.0756C40.5955 36.9499 40.4821 36.8468 40.349 36.7755C40.216 36.7042 40.0674 36.6668 39.9164 36.6667H5.0831C4.93214 36.6668 4.78354 36.7042 4.65049 36.7755C4.51744 36.8468 4.40407 36.9499 4.32044 37.0756L0.653771 42.5756C0.561912 42.7136 0.509214 42.874 0.501291 43.0396C0.493368 43.2052 0.530517 43.3699 0.608779 43.5161C0.687042 43.6623 0.803489 43.7845 0.945717 43.8697C1.08794 43.9549 1.25063 44 1.41644 44.0001H43.5831C43.7489 44 43.9116 43.9549 44.0538 43.8697C44.1961 43.7845 44.3125 43.6623 44.3908 43.5161C44.469 43.3699 44.5062 43.2052 44.4983 43.0396C44.4903 42.874 44.4376 42.7136 44.3458 42.5756Z" fill="#C10230"/>
</g>
<defs>
<clipPath id="clip0_2_254">
<rect width="44" height="44" fill="white" transform="translate(0.5)"/>
</clipPath>
</defs>
</svg>
