<svg width="45" height="44" viewBox="0 0 45 44" fill="none" xmlns="http://www.w3.org/2000/svg">
<g clip-path="url(#clip0_2_236)">
<path d="M2.79171 38.0418H9.20838C9.26864 38.042 9.32834 38.0303 9.38406 38.0074C9.43978 37.9844 9.4904 37.9507 9.53301 37.9081C9.57562 37.8654 9.60937 37.8148 9.63232 37.7591C9.65526 37.7034 9.66695 37.6437 9.66671 37.5834V33.4584C9.66671 33.2153 9.57013 32.9821 9.39823 32.8102C9.22632 32.6383 8.99316 32.5417 8.75004 32.5417H3.25004C3.00693 32.5417 2.77377 32.6383 2.60186 32.8102C2.42995 32.9821 2.33338 33.2153 2.33338 33.4584V37.5834C2.33314 37.6437 2.34482 37.7034 2.36777 37.7591C2.39072 37.8148 2.42447 37.8654 2.46708 37.9081C2.50969 37.9507 2.56031 37.9844 2.61603 38.0074C2.67175 38.0303 2.73145 38.042 2.79171 38.0418Z" fill="#C10230"/>
<path d="M14.25 23.375C14.0069 23.375 13.7738 23.4716 13.6019 23.6435C13.43 23.8154 13.3334 24.0486 13.3334 24.2917V37.5833C13.3331 37.6436 13.3448 37.7033 13.3678 37.759C13.3907 37.8147 13.4245 37.8654 13.4671 37.908C13.5097 37.9506 13.5603 37.9843 13.616 38.0073C13.6717 38.0302 13.7315 38.0419 13.7917 38.0417H20.2084C20.2686 38.0419 20.3283 38.0302 20.3841 38.0073C20.4398 37.9843 20.4904 37.9506 20.533 37.908C20.5756 37.8654 20.6094 37.8147 20.6323 37.759C20.6553 37.7033 20.667 37.6436 20.6667 37.5833V24.2917C20.6667 24.0486 20.5701 23.8154 20.3982 23.6435C20.2263 23.4716 19.9932 23.375 19.75 23.375H14.25Z" fill="#C10230"/>
<path d="M25.25 27.0417C25.0069 27.0417 24.7738 27.1383 24.6019 27.3102C24.43 27.4821 24.3334 27.7153 24.3334 27.9584V37.5834C24.3331 37.6437 24.3448 37.7034 24.3678 37.7591C24.3907 37.8148 24.4245 37.8654 24.4671 37.9081C24.5097 37.9507 24.5603 37.9844 24.616 38.0074C24.6717 38.0303 24.7315 38.042 24.7917 38.0418H31.2084C31.2686 38.042 31.3283 38.0303 31.3841 38.0074C31.4398 37.9844 31.4904 37.9507 31.533 37.9081C31.5756 37.8654 31.6094 37.8148 31.6323 37.7591C31.6553 37.7034 31.667 37.6437 31.6667 37.5834V27.9584C31.6667 27.7153 31.5701 27.4821 31.3982 27.3102C31.2263 27.1383 30.9932 27.0417 30.75 27.0417H25.25Z" fill="#C10230"/>
<path d="M36.25 14.2083C36.0069 14.2083 35.7738 14.3048 35.6019 14.4767C35.43 14.6486 35.3334 14.8818 35.3334 15.1249V37.5833C35.3331 37.6435 35.3448 37.7032 35.3678 37.7589C35.3907 37.8147 35.4245 37.8653 35.4671 37.9079C35.5097 37.9505 35.5603 37.9842 35.616 38.0072C35.6717 38.0301 35.7315 38.0418 35.7917 38.0416H42.2084C42.2686 38.0418 42.3283 38.0301 42.3841 38.0072C42.4398 37.9842 42.4904 37.9505 42.533 37.9079C42.5756 37.8653 42.6094 37.8147 42.6323 37.7589C42.6553 37.7032 42.6669 37.6435 42.6667 37.5833V15.1249C42.6667 14.8818 42.5701 14.6486 42.3982 14.4767C42.2263 14.3048 41.9932 14.2083 41.75 14.2083H36.25Z" fill="#C10230"/>
<path d="M2.33333 43.5417H42.6667C43.1529 43.5417 43.6192 43.3485 43.963 43.0047C44.3068 42.6609 44.5 42.1946 44.5 41.7083C44.5 41.2221 44.3068 40.7558 43.963 40.412C43.6192 40.0682 43.1529 39.875 42.6667 39.875H2.33333C1.8471 39.875 1.38079 40.0682 1.03697 40.412C0.693154 40.7558 0.5 41.2221 0.5 41.7083C0.5 42.1946 0.693154 42.6609 1.03697 43.0047C1.38079 43.3485 1.8471 43.5417 2.33333 43.5417Z" fill="#C10230"/>
<path d="M37.3648 7.65225C37.4265 7.65113 37.4878 7.6624 37.5451 7.68538C37.6024 7.70837 37.6546 7.74261 37.6984 7.78609L39.2678 9.35725C39.353 9.44232 39.4543 9.50975 39.5656 9.55568C39.677 9.60161 39.7963 9.62514 39.9168 9.62492C40.037 9.62541 40.156 9.60172 40.2669 9.55525C40.4346 9.48596 40.5779 9.3685 40.6787 9.21772C40.7795 9.06695 40.8334 8.88964 40.8334 8.70825V1.37492C40.8334 1.1318 40.7368 0.898647 40.5649 0.726739C40.393 0.554831 40.1599 0.458253 39.9168 0.458253H32.5834C32.4019 0.457929 32.2243 0.511514 32.0733 0.612216C31.9222 0.712919 31.8045 0.856203 31.735 1.0239C31.6655 1.19161 31.6473 1.37617 31.6828 1.5542C31.7183 1.73224 31.8059 1.89572 31.9344 2.02392L33.8063 3.89575C33.8902 3.97919 33.9385 4.09198 33.9409 4.21033C33.9433 4.32867 33.8996 4.44332 33.8191 4.53009L27.9268 10.9193C27.7469 11.1119 27.5154 11.2488 27.26 11.3138C27.0046 11.3788 26.7358 11.3691 26.4858 11.2859L19.6621 9.01259C18.7005 8.68759 17.6715 8.61537 16.674 8.80287C15.6764 8.99037 14.7439 9.43129 13.9659 10.0833L4.53342 17.9483C4.0664 18.3372 3.77303 18.8958 3.71785 19.5011C3.66266 20.1064 3.85019 20.7088 4.23917 21.1758C4.62816 21.6429 5.18674 21.9362 5.79203 21.9914C6.39731 22.0466 6.99973 21.8591 7.46676 21.4701L16.8993 13.6088C17.0796 13.4604 17.2945 13.3601 17.524 13.3171C17.7535 13.2742 17.9902 13.29 18.2119 13.3631L25.0356 15.6364C26.1236 15.9995 27.2933 16.0411 28.4044 15.7563C29.5155 15.4714 30.5209 14.8722 31.3001 14.0304L37.0458 7.79709C37.1293 7.70928 37.2437 7.65736 37.3648 7.65225Z" fill="#C10230"/>
</g>
<defs>
<clipPath id="clip0_2_236">
<rect width="44" height="44" fill="white" transform="translate(0.5)"/>
</clipPath>
</defs>
</svg>
