<svg width="39" height="39" viewBox="0 0 39 39" fill="none" xmlns="http://www.w3.org/2000/svg">
<g clip-path="url(#clip0_2_219)">
<path d="M17.875 17.0625V15.0296C17.8754 14.9222 17.9184 14.8192 17.9946 14.7434C18.0707 14.6676 18.1738 14.625 18.2812 14.625H18.6875C19.5495 14.625 20.3761 14.2826 20.9856 13.6731C21.5951 13.0636 21.9375 12.237 21.9375 11.375V3.25C21.9375 2.38805 21.5951 1.5614 20.9856 0.951903C20.3761 0.34241 19.5495 0 18.6875 0L3.25 0C2.38805 0 1.5614 0.34241 0.951903 0.951903C0.34241 1.5614 0 2.38805 0 3.25L0 11.375C0 12.237 0.34241 13.0636 0.951903 13.6731C1.5614 14.2826 2.38805 14.625 3.25 14.625H11.3457C11.3992 14.6251 11.4522 14.6358 11.5016 14.6564C11.5509 14.6771 11.5957 14.7073 11.6334 14.7453L15.1011 18.2114C15.3284 18.4386 15.6179 18.5933 15.9331 18.6559C16.2482 18.7186 16.5749 18.6864 16.8718 18.5635C17.1687 18.4405 17.4225 18.2323 17.601 17.9651C17.7796 17.698 17.8749 17.3838 17.875 17.0625ZM16.25 11.375C15.819 11.375 15.4057 11.5462 15.101 11.851C14.7962 12.1557 14.625 12.569 14.625 13C14.625 13.0115 14.6217 13.0227 14.6153 13.0323C14.609 13.0419 14.6 13.0495 14.5894 13.054C14.5789 13.0585 14.5672 13.0598 14.5559 13.0577C14.5446 13.0556 14.5341 13.0502 14.5259 13.0422L13.3364 11.8511C13.0317 11.5464 12.6184 11.3751 12.1875 11.375H4.0625C3.84701 11.375 3.64035 11.2894 3.48798 11.137C3.3356 10.9847 3.25 10.778 3.25 10.5625V4.0625C3.25 3.84701 3.3356 3.64035 3.48798 3.48798C3.64035 3.3356 3.84701 3.25 4.0625 3.25H17.875C18.0905 3.25 18.2972 3.3356 18.4495 3.48798C18.6019 3.64035 18.6875 3.84701 18.6875 4.0625V10.5625C18.6875 10.778 18.6019 10.9847 18.4495 11.137C18.2972 11.2894 18.0905 11.375 17.875 11.375H16.25Z" fill="#C10230"/>
<path d="M35.75 20.3125H20.3125C19.4505 20.3125 18.6239 20.6549 18.0144 21.2644C17.4049 21.8739 17.0625 22.7005 17.0625 23.5625V31.6875C17.0625 32.5495 17.4049 33.3761 18.0144 33.9856C18.6239 34.5951 19.4505 34.9375 20.3125 34.9375H20.7188C20.8265 34.9375 20.9298 34.9803 21.006 35.0565C21.0822 35.1327 21.125 35.236 21.125 35.3437V37.375C21.1249 37.6964 21.2201 38.0105 21.3986 38.2778C21.5771 38.5451 21.8308 38.7534 22.1276 38.8765C22.4246 38.9995 22.7515 39.0317 23.0667 38.9689C23.382 38.9061 23.6716 38.7513 23.8989 38.5239L27.3666 35.0577C27.4043 35.0198 27.4491 34.9896 27.4984 34.9689C27.5478 34.9483 27.6008 34.9376 27.6542 34.9375H35.75C36.612 34.9375 37.4386 34.5951 38.0481 33.9856C38.6576 33.3761 39 32.5495 39 31.6875V23.5625C39 22.7005 38.6576 21.8739 38.0481 21.2644C37.4386 20.6549 36.612 20.3125 35.75 20.3125ZM35.75 30.875C35.75 31.0905 35.6644 31.2971 35.512 31.4495C35.3597 31.6019 35.153 31.6875 34.9375 31.6875H26.8125C26.3816 31.6876 25.9683 31.8589 25.6636 32.1636L24.4741 33.3547C24.4659 33.3627 24.4554 33.3681 24.4441 33.3702C24.4328 33.3723 24.4211 33.371 24.4106 33.3665C24.4 33.362 24.391 33.3544 24.3847 33.3448C24.3783 33.3352 24.375 33.324 24.375 33.3125C24.375 32.8815 24.2038 32.4682 23.899 32.1634C23.5943 31.8587 23.181 31.6875 22.75 31.6875H21.125C20.9095 31.6875 20.7028 31.6019 20.5505 31.4495C20.3981 31.2971 20.3125 31.0905 20.3125 30.875V24.375C20.3125 24.1595 20.3981 23.9528 20.5505 23.8005C20.7028 23.6481 20.9095 23.5625 21.125 23.5625H34.9375C35.153 23.5625 35.3597 23.6481 35.512 23.8005C35.6644 23.9528 35.75 24.1595 35.75 24.375V30.875Z" fill="#C10230"/>
<path d="M22.7495 17.8751C22.7495 18.0906 22.8351 18.2973 22.9875 18.4496C23.1398 18.602 23.3465 18.6876 23.562 18.6876H38.187C38.4025 18.6876 38.6091 18.602 38.7615 18.4496C38.9139 18.2973 38.9995 18.0906 38.9995 17.8751C39.0514 16.6389 38.711 15.4179 38.0268 14.387C37.3426 13.356 36.3498 12.568 35.1905 12.1356C35.1264 12.1089 35.0702 12.0662 35.0273 12.0115C34.9844 11.9569 34.9562 11.8922 34.9455 11.8235C34.9347 11.7549 34.9417 11.6847 34.9658 11.6195C34.99 11.5544 35.0304 11.4965 35.0832 11.4515C36.0972 10.59 36.8223 9.43806 37.1607 8.15131C37.4991 6.86456 37.4345 5.50495 36.9756 4.25609C36.5167 3.00723 35.6856 1.92928 34.5945 1.16782C33.5035 0.40635 32.205 -0.00195312 30.8745 -0.00195312C29.544 -0.00195312 28.2455 0.40635 27.1545 1.16782C26.0634 1.92928 25.2323 3.00723 24.7734 4.25609C24.3145 5.50495 24.2498 6.86456 24.5883 8.15131C24.9267 9.43806 25.6518 10.59 26.6657 11.4515C26.7186 11.4965 26.759 11.5544 26.7831 11.6195C26.8073 11.6847 26.8143 11.7549 26.8035 11.8235C26.7928 11.8922 26.7646 11.9569 26.7217 12.0115C26.6788 12.0662 26.6226 12.1089 26.5585 12.1356C25.3992 12.568 24.4064 13.356 23.7222 14.387C23.038 15.4179 22.6976 16.6389 22.7495 17.8751ZM27.7545 5.5901C27.7713 5.5303 27.8017 5.47523 27.8435 5.42925C27.8852 5.38328 27.9371 5.34766 27.995 5.32522C28.0528 5.30241 28.1152 5.29318 28.1771 5.29825C28.2391 5.30333 28.2991 5.32256 28.3525 5.35447C29.6051 6.10588 31.0388 6.50193 32.4995 6.5001C32.99 6.50037 33.4796 6.45577 33.962 6.36685C33.9817 6.36373 34.0018 6.36472 34.0211 6.36975C34.0404 6.37479 34.0585 6.38376 34.0741 6.3961C34.0895 6.40877 34.102 6.42462 34.1107 6.44258C34.1194 6.46053 34.1241 6.48015 34.1245 6.5001C34.1247 6.9658 34.0249 7.42611 33.8317 7.84986C33.6385 8.27361 33.3565 8.65089 33.0048 8.95615C32.6531 9.26141 32.2399 9.48752 31.7932 9.61917C31.3465 9.75081 30.8767 9.78492 30.4157 9.71917C29.9546 9.65343 29.5131 9.48937 29.121 9.2381C28.7289 8.98684 28.3954 8.65425 28.143 8.26285C27.8907 7.87145 27.7254 7.43038 27.6583 6.96953C27.5913 6.50867 27.6241 6.0388 27.7545 5.59172V5.5901Z" fill="#C10230"/>
<path d="M12.4409 32.4464C12.3768 32.4197 12.3206 32.3769 12.2777 32.3223C12.2348 32.2677 12.2067 32.203 12.1959 32.1343C12.1851 32.0657 12.1922 31.9955 12.2163 31.9303C12.2404 31.8652 12.2808 31.8073 12.3337 31.7623C13.3476 30.9008 14.0728 29.7489 14.4112 28.4621C14.7496 27.1753 14.685 25.8157 14.226 24.5669C13.7671 23.318 12.936 22.2401 11.845 21.4786C10.7539 20.7171 9.45544 20.3088 8.12493 20.3088C6.79442 20.3088 5.49596 20.7171 4.4049 21.4786C3.31383 22.2401 2.48272 23.318 2.02381 24.5669C1.5649 25.8157 1.50028 27.1753 1.8387 28.4621C2.17711 29.7489 2.90224 30.9008 3.91618 31.7623C3.96904 31.8073 4.00946 31.8652 4.03358 31.9303C4.05771 31.9955 4.06472 32.0657 4.05397 32.1343C4.04321 32.203 4.01503 32.2677 3.97213 32.3223C3.92923 32.3769 3.87304 32.4197 3.80893 32.4464C2.64935 32.8788 1.65636 33.6672 0.97216 34.6984C0.287957 35.7297 -0.0523651 36.951 -7.17836e-05 38.1875C-7.17836e-05 38.403 0.0855307 38.6097 0.237904 38.762C0.390277 38.9144 0.59694 39 0.812428 39H15.4374C15.6529 39 15.8596 38.9144 16.012 38.762C16.1643 38.6097 16.2499 38.403 16.2499 38.1875C16.3022 36.951 15.9619 35.7297 15.2777 34.6984C14.5935 33.6672 13.6005 32.8788 12.4409 32.4464ZM5.00493 25.9025C5.02169 25.8427 5.05215 25.7876 5.09389 25.7417C5.13564 25.6957 5.18752 25.6601 5.24543 25.6376C5.30328 25.6148 5.3656 25.6056 5.42758 25.6107C5.48956 25.6157 5.54955 25.635 5.60293 25.6669C7.28881 26.6732 9.283 27.0324 11.2141 26.6776C11.2338 26.6745 11.2539 26.6755 11.2732 26.6805C11.2925 26.6856 11.3105 26.6945 11.3262 26.7069C11.3415 26.7199 11.3538 26.7361 11.3622 26.7543C11.3706 26.7726 11.375 26.7924 11.3749 26.8125C11.3752 27.2782 11.2753 27.7385 11.0821 28.1623C10.8889 28.586 10.607 28.9633 10.2553 29.2686C9.90355 29.5738 9.49035 29.7999 9.04364 29.9316C8.59694 30.0632 8.12715 30.0973 7.66611 30.0316C7.20507 29.9658 6.76355 29.8018 6.37145 29.5505C5.97934 29.2993 5.64581 28.9667 5.39346 28.5753C5.1411 28.1839 4.97581 27.7428 4.90877 27.2819C4.84174 26.8211 4.87453 26.3512 5.00493 25.9041V25.9025Z" fill="#C10230"/>
</g>
<defs>
<clipPath id="clip0_2_219">
<rect width="39" height="39" fill="white"/>
</clipPath>
</defs>
</svg>
