<svg width="45" height="44" viewBox="0 0 45 44" fill="none" xmlns="http://www.w3.org/2000/svg">
<g clip-path="url(#clip0_2_207)">
<path d="M39 6.41675H6C4.54131 6.41675 3.14236 6.99621 2.11091 8.02766C1.07946 9.05911 0.5 10.4581 0.5 11.9167L0.5 32.0834C0.5 33.5421 1.07946 34.9411 2.11091 35.9725C3.14236 37.004 4.54131 37.5834 6 37.5834H39C40.4587 37.5834 41.8576 37.004 42.8891 35.9725C43.9205 34.9411 44.5 33.5421 44.5 32.0834V11.9167C44.5 10.4581 43.9205 9.05911 42.8891 8.02766C41.8576 6.99621 40.4587 6.41675 39 6.41675ZM6 10.0834H39C39.4862 10.0834 39.9525 10.2766 40.2964 10.6204C40.6402 10.9642 40.8333 11.4305 40.8333 11.9167V13.7501C40.8333 13.9932 40.7368 14.2264 40.5648 14.3983C40.3929 14.5702 40.1598 14.6667 39.9167 14.6667H5.08333C4.84022 14.6667 4.60706 14.5702 4.43515 14.3983C4.26324 14.2264 4.16667 13.9932 4.16667 13.7501V11.9167C4.16667 11.4305 4.35982 10.9642 4.70364 10.6204C5.04745 10.2766 5.51377 10.0834 6 10.0834ZM39 33.9167H6C5.51377 33.9167 5.04745 33.7236 4.70364 33.3798C4.35982 33.036 4.16667 32.5696 4.16667 32.0834V21.0834C4.16667 20.8403 4.26324 20.6071 4.43515 20.4352C4.60706 20.2633 4.84022 20.1667 5.08333 20.1667H39.9167C40.1598 20.1667 40.3929 20.2633 40.5648 20.4352C40.7368 20.6071 40.8333 20.8403 40.8333 21.0834V32.0834C40.8333 32.5696 40.6402 33.036 40.2964 33.3798C39.9525 33.7236 39.4862 33.9167 39 33.9167Z" fill="#C10230"/>
<path d="M15.1667 26.5833H9.66671C9.18048 26.5833 8.71416 26.7764 8.37035 27.1202C8.02653 27.464 7.83337 27.9304 7.83337 28.4166C7.83337 28.9028 8.02653 29.3691 8.37035 29.7129C8.71416 30.0568 9.18048 30.2499 9.66671 30.2499H15.1667C15.6529 30.2499 16.1193 30.0568 16.4631 29.7129C16.8069 29.3691 17 28.9028 17 28.4166C17 27.9304 16.8069 27.464 16.4631 27.1202C16.1193 26.7764 15.6529 26.5833 15.1667 26.5833Z" fill="#C10230"/>
</g>
<defs>
<clipPath id="clip0_2_207">
<rect width="44" height="44" fill="white" transform="translate(0.5)"/>
</clipPath>
</defs>
</svg>
