<svg width="45" height="44" viewBox="0 0 45 44" fill="none" xmlns="http://www.w3.org/2000/svg">
<g clip-path="url(#clip0_2_214)">
<path d="M40.8645 24.4768C40.8073 24.3522 40.7228 24.242 40.6173 24.1543C40.5118 24.0667 40.388 24.0039 40.255 23.9705C40.122 23.937 39.9832 23.9339 39.8488 23.9612C39.7144 23.9886 39.5879 24.0457 39.4785 24.1284C38.193 25.0464 36.7248 25.6767 35.1739 25.9764C33.808 26.2538 32.5017 26.7695 31.3147 27.4999C30.641 27.8867 30.0732 28.4338 29.6616 29.0926C29.2501 29.7514 29.0074 30.5016 28.9552 31.2766C28.9529 31.6612 29.0149 32.0435 29.1385 32.4078C29.1692 32.4971 29.1713 32.5938 29.1447 32.6844C29.1181 32.775 29.0641 32.8551 28.99 32.9138C27.8877 33.7981 26.8515 34.762 25.8899 35.7976C25.8272 35.8649 25.7457 35.9119 25.656 35.9323C25.5663 35.9527 25.4725 35.9456 25.3869 35.912C25.3012 35.8783 25.2277 35.8197 25.1758 35.7437C25.1239 35.6678 25.0961 35.5779 25.096 35.4859V27.3276C25.0955 27.2189 25.1338 27.1135 25.204 27.0305C25.2743 26.9475 25.3719 26.8922 25.4792 26.8748C28.8292 26.3185 31.8475 24.5227 33.9349 21.8441C36.0222 19.1655 37.026 15.7999 36.7469 12.4155C36.4678 9.03115 34.9262 5.87547 32.4283 3.57501C29.9303 1.27455 26.6586 -0.00244141 23.2627 -0.00244141C19.8668 -0.00244141 16.5951 1.27455 14.0971 3.57501C11.5991 5.87547 10.0576 9.03115 9.77846 12.4155C9.49936 15.7999 10.5031 19.1655 12.5905 21.8441C14.6779 24.5227 17.6962 26.3185 21.0462 26.8748C21.1534 26.8926 21.2507 26.9479 21.3209 27.0308C21.3911 27.1138 21.4295 27.219 21.4294 27.3276V33.6673C21.4294 33.754 21.4049 33.839 21.3586 33.9123C21.3123 33.9857 21.2462 34.0444 21.1678 34.0817C21.0895 34.1189 21.0022 34.1332 20.9161 34.1228C20.83 34.1124 20.7486 34.0778 20.6814 34.0229C19.5985 33.1443 18.426 32.3823 17.1834 31.7496C17.1379 31.7267 17.1001 31.6911 17.0744 31.6472C17.0487 31.6033 17.0362 31.5529 17.0385 31.5021C16.9932 30.6599 16.7399 29.842 16.3013 29.1215C15.8627 28.401 15.2524 27.8005 14.525 27.3734C12.8595 26.5273 11.0136 26.0978 9.14559 26.1217C7.27761 26.1457 5.44331 26.6224 3.80002 27.5109C3.68583 27.5868 3.59009 27.6872 3.51986 27.8049C3.44962 27.9226 3.40668 28.0546 3.39419 28.1911C3.3817 28.3276 3.39999 28.4652 3.44769 28.5937C3.4954 28.7222 3.57132 28.8383 3.66986 28.9336C4.67293 29.9602 5.44327 31.1908 5.92852 32.5416C6.37517 33.7471 7.03119 34.8643 7.86636 35.8416C8.27427 36.3335 8.77979 36.7354 9.35096 37.0219C9.92213 37.3084 10.5465 37.4734 11.1847 37.5063C11.3504 37.5069 11.5159 37.4946 11.6797 37.4696C12.3158 37.3431 12.9116 37.0642 13.4162 36.6567C13.9207 36.2493 14.3188 35.7255 14.5764 35.1303C14.613 35.0638 14.6652 35.0072 14.7285 34.9653L14.7945 34.9213C14.8613 34.876 14.939 34.8493 15.0195 34.8438C15.1 34.8384 15.1805 34.8543 15.2529 34.8901C17.7711 36.0433 19.8971 37.908 21.3689 40.2544C21.4108 40.3248 21.433 40.4053 21.433 40.4873V42.1666C21.4586 42.5892 21.6202 42.9921 21.8937 43.3153C22.1672 43.6384 22.538 43.8644 22.9505 43.9595C23.363 44.0546 23.7953 44.0137 24.1826 43.8429C24.57 43.6721 24.8917 43.3805 25.0997 43.0118C26.7076 40.2239 28.8216 37.7606 31.333 35.7481C31.3522 35.733 31.3743 35.7222 31.3979 35.7162C31.4216 35.7103 31.4462 35.7093 31.4702 35.7135C31.4942 35.7176 31.5171 35.7267 31.5374 35.7403C31.5576 35.7538 31.5748 35.7715 31.5879 35.7921C31.8758 36.3403 32.2793 36.8195 32.7706 37.1965C33.2619 37.5735 33.8291 37.8393 34.4332 37.9756C34.6592 38.0183 34.8888 38.0398 35.1189 38.0398C35.9073 37.9898 36.6779 37.7826 37.385 37.4302C38.0922 37.0779 38.7217 36.5876 39.2365 35.9883C40.4187 34.3442 41.1844 32.438 41.468 30.433C41.7515 28.428 41.5445 26.3841 40.8645 24.4768ZM19.9645 21.7268C19.5391 21.7268 19.131 21.5578 18.8302 21.2569C18.5294 20.9561 18.3604 20.5481 18.3604 20.1226C18.3604 19.6972 18.5294 19.2891 18.8302 18.9883C19.131 18.6874 19.5391 18.5184 19.9645 18.5184H24.4379C24.7515 18.5191 25.0555 18.4103 25.2975 18.2108C25.5396 18.0113 25.7044 17.7337 25.7637 17.4257C25.823 17.1177 25.773 16.7987 25.6224 16.5236C25.4717 16.2485 25.2298 16.0346 24.9384 15.9188L20.4009 14.1166C19.4823 13.7493 18.7083 13.0931 18.1957 12.247C17.6832 11.4009 17.4599 10.4109 17.5597 9.42676C17.6596 8.44258 18.077 7.51762 18.749 6.79166C19.4209 6.06569 20.311 5.57817 21.2845 5.40277C21.3904 5.38384 21.4862 5.3283 21.5553 5.24585C21.6243 5.1634 21.6621 5.05931 21.6622 4.95177V4.72994C21.6622 4.30448 21.8312 3.89646 22.132 3.59562C22.4329 3.29478 22.8409 3.12577 23.2664 3.12577C23.6918 3.12577 24.0998 3.29478 24.4007 3.59562C24.7015 3.89646 24.8705 4.30448 24.8705 4.72994V4.86744C24.8705 4.98899 24.9188 5.10557 25.0048 5.19153C25.0907 5.27748 25.2073 5.32577 25.3289 5.32577H26.5664C26.9918 5.32577 27.3998 5.49478 27.7007 5.79562C28.0015 6.09646 28.1705 6.50448 28.1705 6.92993C28.1705 7.35539 28.0015 7.76341 27.7007 8.06425C27.3998 8.36509 26.9918 8.5341 26.5664 8.5341H22.093C21.7802 8.53455 21.4773 8.64381 21.2362 8.84316C20.9952 9.0425 20.8309 9.31951 20.7718 9.62668C20.7126 9.93385 20.7621 10.252 20.9119 10.5267C21.0616 10.8013 21.3023 11.0153 21.5925 11.1319L26.1337 12.9469C27.0522 13.3144 27.8262 13.9708 28.3386 14.817C28.8511 15.6632 29.0741 16.6533 28.9741 17.6375C28.8741 18.6217 28.4564 19.5466 27.7842 20.2725C27.112 20.9983 26.2219 21.4856 25.2482 21.6608C25.1425 21.68 25.0469 21.7357 24.9779 21.818C24.9089 21.9004 24.8709 22.0043 24.8705 22.1118V22.3299C24.8705 22.7554 24.7015 23.1634 24.4007 23.4643C24.0998 23.7651 23.6918 23.9341 23.2664 23.9341C22.8409 23.9341 22.4329 23.7651 22.132 23.4643C21.8312 23.1634 21.6622 22.7554 21.6622 22.3299V22.1924C21.6622 22.0709 21.6139 21.9543 21.5279 21.8683C21.442 21.7824 21.3254 21.7341 21.2039 21.7341L19.9645 21.7268Z" fill="#C10230"/>
</g>
<defs>
<clipPath id="clip0_2_214">
<rect width="44" height="44" fill="white" transform="translate(0.5)"/>
</clipPath>
</defs>
</svg>
