<svg width="45" height="44" viewBox="0 0 45 44" fill="none" xmlns="http://www.w3.org/2000/svg">
<path d="M30.4988 29.8429C37.779 29.8429 43.6823 24.5556 43.6823 18.0289C43.6823 12.9451 38.8973 7.36628 34.3543 5.15161C34.2972 5.1236 34.2465 5.08405 34.2055 5.03547C34.1644 4.98688 34.1339 4.9303 34.1158 4.86932C34.0977 4.80833 34.0924 4.74426 34.1004 4.68114C34.1083 4.61802 34.1292 4.55724 34.1618 4.50261L35.8998 1.60778C35.9931 1.45188 36.0434 1.27405 36.0456 1.0924C36.0478 0.910742 36.0019 0.731736 35.9125 0.573592C35.8231 0.415448 35.6934 0.283807 35.5366 0.192063C35.3798 0.100318 35.2015 0.0517438 35.0198 0.0512803H26.3206C26.1384 0.0504448 25.9591 0.0980738 25.8013 0.18929C25.6435 0.280506 25.5127 0.412032 25.4224 0.570398C25.3321 0.728764 25.2856 0.90828 25.2875 1.09056C25.2894 1.27284 25.3397 1.45134 25.4333 1.60778L27.1621 4.48795C27.1946 4.54291 27.2152 4.60401 27.2227 4.66737C27.2303 4.73074 27.2245 4.79498 27.2059 4.85601C27.1873 4.91704 27.1562 4.97353 27.1146 5.0219C27.073 5.07026 27.0217 5.10944 26.9641 5.13695C22.3221 7.33695 17.3098 12.9341 17.3098 18.0289C17.3153 24.5556 23.2168 29.8429 30.4988 29.8429ZM29.7306 17.9263C27.8863 16.6869 26.1446 15.5136 26.1446 13.8068C26.1022 13.4202 26.1471 13.029 26.2762 12.6622C26.4052 12.2953 26.615 11.9621 26.8901 11.6872C27.1652 11.4123 27.4985 11.2027 27.8654 11.0739C28.2324 10.9451 28.6236 10.9004 29.0101 10.9431C29.0405 10.9426 29.0694 10.9303 29.0906 10.9086C29.1119 10.887 29.1238 10.8579 29.1238 10.8276V10.0833C29.1238 9.71861 29.2687 9.36887 29.5265 9.11101C29.7844 8.85315 30.1341 8.70828 30.4988 8.70828C30.8635 8.70828 31.2132 8.85315 31.4711 9.11101C31.7289 9.36887 31.8738 9.71861 31.8738 10.0833V10.4848C31.8738 10.6063 31.9221 10.7229 32.0081 10.8089C32.094 10.8948 32.2106 10.9431 32.3321 10.9431H33.478C33.8427 10.9431 34.1924 11.088 34.4503 11.3458C34.7081 11.6037 34.853 11.9534 34.853 12.3181C34.853 12.6828 34.7081 13.0325 34.4503 13.2904C34.1924 13.5482 33.8427 13.6931 33.478 13.6931H28.9515C28.9441 13.6931 28.9368 13.6946 28.93 13.6975C28.9232 13.7003 28.9171 13.7046 28.9119 13.7099C28.9068 13.7152 28.9028 13.7215 28.9001 13.7283C28.8975 13.7352 28.8962 13.7426 28.8965 13.7499C28.8948 13.7961 28.9091 13.8414 28.9368 13.8783C29.6526 14.5436 30.4333 15.1357 31.267 15.6456C33.1113 16.8868 34.853 18.0601 34.853 19.7651C34.8843 20.1492 34.8317 20.5355 34.6988 20.8972C34.566 21.2589 34.3561 21.5875 34.0837 21.86C33.8114 22.1326 33.483 22.3427 33.1213 22.4758C32.7597 22.6088 32.3734 22.6617 31.9893 22.6306C31.959 22.6306 31.9299 22.6425 31.9083 22.6638C31.8867 22.6851 31.8743 22.714 31.8738 22.7443V23.4904C31.8738 23.8551 31.7289 24.2049 31.4711 24.4627C31.2132 24.7206 30.8635 24.8654 30.4988 24.8654C30.1341 24.8654 29.7844 24.7206 29.5265 24.4627C29.2687 24.2049 29.1238 23.8551 29.1238 23.4904V23.0889C29.1238 22.9674 29.0755 22.8508 28.9896 22.7649C28.9036 22.6789 28.787 22.6306 28.6655 22.6306H27.5196C27.155 22.6306 26.8052 22.4858 26.5474 22.2279C26.2895 21.97 26.1446 21.6203 26.1446 21.2556C26.1446 20.8909 26.2895 20.5412 26.5474 20.2833C26.8052 20.0255 27.155 19.8806 27.5196 19.8806H32.0461C32.0609 19.8806 32.0751 19.8749 32.0857 19.8646C32.0963 19.8544 32.1025 19.8404 32.103 19.8256C32.1036 19.7802 32.0895 19.7358 32.0626 19.6991C31.3473 19.0292 30.566 18.4333 29.7306 17.9208V17.9263Z" fill="#C10230"/>
<path d="M37.9751 33.0551L31.52 35.2001C31.4574 35.2217 31.4001 35.2561 31.3518 35.3013C31.3035 35.3465 31.2652 35.4013 31.2395 35.4623C30.9521 36.1083 30.484 36.6574 29.8917 37.0435C29.2993 37.4296 28.608 37.6362 27.901 37.6384H20.5676C20.3245 37.6384 20.0914 37.5418 19.9194 37.3699C19.7475 37.198 19.651 36.9649 19.651 36.7218C19.651 36.4786 19.7475 36.2455 19.9194 36.0736C20.0914 35.9017 20.3245 35.8051 20.5676 35.8051H27.901C28.3872 35.8051 28.8535 35.6119 29.1973 35.2681C29.5411 34.9243 29.7343 34.458 29.7343 33.9718C29.7343 33.4855 29.5411 33.0192 29.1973 32.6754C28.8535 32.3316 28.3872 32.1384 27.901 32.1384H21.4843C20.9215 32.1384 18.716 29.3884 14.151 29.3884H10.3835C9.2448 29.3888 8.12187 29.6543 7.10363 30.1639L1.57063 32.9249C1.49472 32.9634 1.43092 33.0222 1.38628 33.0946C1.34164 33.1671 1.31788 33.2505 1.31763 33.3356V43.2246C1.31752 43.3065 1.3394 43.387 1.38097 43.4577C1.42254 43.5283 1.48229 43.5865 1.554 43.6262C1.6257 43.6659 1.70673 43.6856 1.78866 43.6833C1.87058 43.6811 1.9504 43.6569 2.01979 43.6133L7.91579 39.9283C8.14861 39.7845 8.41014 39.6935 8.68193 39.6619C8.95372 39.6302 9.22916 39.6585 9.4888 39.7449C27.758 45.9013 21.6401 45.9288 42.2413 35.5063C42.3819 35.4373 42.503 35.3341 42.5934 35.2062C42.6839 35.0784 42.7408 34.9299 42.7591 34.7743C42.7773 34.6187 42.7563 34.4611 42.6978 34.3158C42.6394 34.1704 42.5455 34.0421 42.4246 33.9424C41.8251 33.4188 41.0988 33.0614 40.3181 32.9057C39.5375 32.7501 38.7297 32.8016 37.9751 33.0551Z" fill="#C10230"/>
</svg>
