<svg width="45" height="32" viewBox="0 0 45 32" fill="none" xmlns="http://www.w3.org/2000/svg">
<path fill-rule="evenodd" clip-rule="evenodd" d="M23.1267 0.366835L43.4345 8.43245C43.7544 8.56001 44.0278 8.78213 44.2181 9.06915C44.4084 9.35617 44.5066 9.69442 44.4996 10.0387C44.4926 10.383 44.3808 10.717 44.179 10.9961C43.9772 11.2751 43.695 11.486 43.3702 11.6005L23.0623 18.7692C22.6987 18.8971 22.3023 18.8971 21.9386 18.7692L5.57727 12.9949V21.4769C5.57727 22.1501 5.30982 22.7958 4.83377 23.2719C4.35771 23.7479 3.71203 24.0154 3.03879 24.0154C2.36554 24.0154 1.71986 23.7479 1.24381 23.2719C0.767749 22.7958 0.500302 22.1501 0.500302 21.4769V10.0368C0.493799 9.69266 0.592364 9.35476 0.782854 9.06812C0.973343 8.78147 1.2467 8.55972 1.56647 8.43245L21.8743 0.366835C22.2772 0.211055 22.7237 0.211055 23.1267 0.366835ZM22.5007 21.531L33.5448 17.6319V17.6285C33.8001 17.5386 34.0732 17.5113 34.3412 17.5488C34.6092 17.5863 34.8644 17.6876 35.0852 17.8441C35.306 18.0006 35.486 18.2077 35.6102 18.4482C35.7344 18.6887 35.7992 18.9554 35.799 19.226V26.4895C35.7992 26.8401 35.6906 27.1821 35.4881 27.4682C35.2856 27.7544 34.9992 27.9706 34.6685 28.087L25.9564 31.1603C23.7197 31.9467 21.2817 31.9467 19.045 31.1603L10.3329 28.087C10.0022 27.9706 9.71581 27.7544 9.5133 27.4682C9.3108 27.1821 9.20217 26.8401 9.20242 26.4895V19.2294C9.20222 18.9588 9.26694 18.692 9.39114 18.4516C9.51534 18.2111 9.69539 18.0039 9.9162 17.8475C10.137 17.691 10.3921 17.5897 10.6602 17.5522C10.9282 17.5147 11.2013 17.542 11.4566 17.6319L22.5007 21.531Z" fill="#C10230"/>
</svg>
