<svg width="15" height="16" viewBox="0 0 15 16" fill="none" xmlns="http://www.w3.org/2000/svg">
<g clip-path="url(#clip0_2_408)">
<path d="M12.1878 8.00003C12.188 8.20446 12.1447 8.4066 12.0606 8.59294C11.9765 8.77929 11.8537 8.94556 11.7003 9.08066L4.73026 15.2125C4.49929 15.4063 4.20166 15.5021 3.90102 15.4793C3.60037 15.4565 3.32057 15.317 3.12144 15.0906C2.92231 14.8642 2.81967 14.5689 2.83545 14.2678C2.85123 13.9667 2.98418 13.6838 3.20589 13.4794L9.30088 8.11753C9.31762 8.10287 9.33102 8.0848 9.34021 8.06454C9.34939 8.04427 9.35414 8.02228 9.35414 8.00003C9.35414 7.97779 9.34939 7.95579 9.34021 7.93553C9.33102 7.91527 9.31762 7.8972 9.30088 7.88253L3.20589 2.52066C2.98418 2.31632 2.85123 2.03335 2.83545 1.73225C2.81967 1.43116 2.92231 1.13584 3.12144 0.90944C3.32057 0.683043 3.60037 0.543539 3.90102 0.520758C4.20166 0.497977 4.49929 0.593727 4.73026 0.787534L11.6978 6.91753C11.8516 7.05287 11.9748 7.2194 12.0593 7.40604C12.1438 7.59268 12.1876 7.79516 12.1878 8.00003Z" fill="#C10230"/>
</g>
<defs>
<clipPath id="clip0_2_408">
<rect width="15" height="15" fill="white" transform="translate(0 0.5)"/>
</clipPath>
</defs>
</svg>
