<svg width="120" height="35" viewBox="0 0 120 35" fill="none" xmlns="http://www.w3.org/2000/svg">
<g clip-path="url(#clip0_2_489)">
<path d="M31.1133 16.531C29.9978 18.9317 28.2592 20.9894 26.0785 22.4901C23.8978 23.9907 21.3543 24.88 18.7136 25.0641C17.8248 24.6101 17.0154 24.0154 16.3172 23.3023C15.9308 22.914 15.5829 22.4894 15.2778 22.0344C17.8546 22.5463 20.5283 22.1943 22.8848 21.0328C24.0239 20.4714 25.0714 19.7405 25.9912 18.8649C26.9718 17.9328 27.7787 16.8332 28.3746 15.6185L27.1067 15.1753C27.6041 12.3541 27.3174 9.45025 26.2778 6.78087C25.2382 4.11149 23.4858 1.77854 21.2115 0.0368652L19.7028 2.01537C21.6425 3.81696 23.0633 6.10526 23.8171 8.643C24.5708 11.1807 24.6297 13.8748 23.9879 16.4431C22.8883 17.5535 21.5149 18.3539 20.0068 18.7633C21.3152 16.4571 21.8106 13.7781 21.4139 11.1564C21.2369 9.89931 20.8694 8.67615 20.3237 7.52993C19.7381 6.30825 18.9397 5.20053 17.9657 4.25883L17.1542 5.31123C14.624 3.96972 11.7742 3.34807 8.91512 3.51349C6.05607 3.67891 3.29718 4.62536 0.938574 6.24972L2.34631 8.29013C4.66051 7.00498 7.27608 6.36237 9.92233 6.42925C12.5686 6.49613 15.1486 7.27106 17.395 8.67147C17.8446 9.56507 18.1529 10.5222 18.3081 11.5105C18.3798 12.0652 18.4008 12.6258 18.3712 13.1844C16.5886 11.2345 14.206 9.93584 11.6012 9.49482C10.3446 9.27675 9.06208 9.25165 7.79773 9.41929C6.46419 9.61067 5.17589 10.0401 3.99424 10.6871L4.75506 11.7767C2.69524 13.7664 1.22134 16.2841 0.49471 19.0543C-0.231924 21.8244 -0.183367 24.7413 0.634617 27.4859L3.00499 26.7752C2.49753 24.1787 2.69451 21.4946 3.57514 18.9998C4.45576 16.5051 5.98817 14.2914 8.01316 12.5889C9.00422 12.4303 10.014 12.4303 11.0051 12.5889C11.5527 12.6937 12.0912 12.8416 12.6152 13.0321C10.2101 14.1327 8.23894 16.0019 7.01152 18.3449C6.40541 19.4634 5.97765 20.6688 5.74369 21.9193C5.50276 23.2524 5.50276 24.6187 5.74369 25.9518L7.01152 25.5705C8.26846 28.1437 10.2077 30.323 12.6177 31.87C15.0277 33.417 17.8162 34.2736 20.6791 34.345L20.7422 31.8093C18.1151 31.4856 15.622 30.4656 13.5203 28.8564C11.4186 27.2473 9.78421 25.1064 8.78636 22.6547C8.95463 21.6663 9.27121 20.7099 9.72485 19.8157C9.99036 19.3277 10.3001 18.8641 10.6503 18.4328C10.9492 21.0562 12.1133 23.5055 13.9592 25.3934C14.8413 26.3052 15.859 27.0748 16.9765 27.6753C18.1613 28.315 19.4483 28.7439 20.78 28.9431V27.6121C23.615 27.2131 26.2865 26.0428 28.5021 24.2296C30.7177 22.4165 32.3924 20.0297 33.3444 17.3296L31.1133 16.531ZM13.8069 18.4711L10.7265 18.3956C11.5233 17.4227 12.4898 16.6021 13.5791 15.9739L12.7044 13.0197C13.8755 13.4765 14.9534 14.1421 15.8863 14.9846L18.422 13.2352C18.3499 14.4905 18.0537 15.723 17.5473 16.874L19.9814 18.7497C18.7669 19.0728 17.5031 19.1683 16.254 19.0295L15.227 21.9329C14.5481 20.8747 14.0668 19.7013 13.8069 18.4711Z" fill="#C10230"/>
<path d="M38.8081 5.78149H55.2899V9.58498H43.4232V14.5672H53.819V18.2815H43.4232V24.2913H55.2899V28.0948H38.8081V5.78149Z" fill="#0B1728"/>
<path d="M55.2899 20.0829C55.2899 15.1004 58.1297 11.639 62.1107 11.639C63.0074 11.5982 63.8988 11.7957 64.694 12.2123C65.4892 12.6288 66.1601 13.2496 66.6372 14.01H66.7258V5.78149H70.9601V28.0824H66.878V26.0036H66.8143C66.3189 26.8138 65.6154 27.4755 64.777 27.9214C63.9386 28.3674 62.9962 28.5813 62.0475 28.5393C58.0285 28.5266 55.2899 25.2557 55.2899 20.0829ZM66.8143 20.1832C66.8143 17.1278 65.8255 15.1119 63.1123 15.1119C60.7795 15.1119 59.588 17.1658 59.588 20.1832C59.588 23.2007 60.8555 25.0775 62.9854 25.0775C65.5084 24.9761 66.8143 23.1119 66.8143 20.1832Z" fill="#0B1728"/>
<path d="M72.7989 5.78149H88.7483V9.58498H77.3379V14.9349H86.9859V18.7384H77.2995V27.9561H72.7736L72.7989 5.78149Z" fill="#0B1728"/>
<path d="M88.0127 20.0569C88.0127 15.3152 91.2203 11.6389 95.8859 11.6389C101.033 11.6389 103.772 15.5687 103.772 21.2739H92.1839C92.5009 23.7335 93.8698 25.2545 96.266 25.2545C96.9248 25.3155 97.5851 25.1559 98.1429 24.8001C98.7008 24.4443 99.1246 23.9127 99.347 23.2896H103.467C102.884 26.1295 100.361 28.5256 96.2406 28.5256C91.0044 28.5256 88.0127 24.8239 88.0127 20.0569ZM92.247 18.3458H99.347C99.3555 17.8955 99.2735 17.4479 99.1062 17.0297C98.9389 16.6115 98.6899 16.2307 98.3732 15.9104C98.0565 15.5902 97.6789 15.337 97.2626 15.1651C96.8463 14.9931 96.3994 14.9065 95.949 14.91C93.7049 14.91 92.6147 16.2539 92.247 18.3458Z" fill="#0B1728"/>
<path d="M104.33 20.0829C104.33 15.1004 107.17 11.639 111.163 11.639C112.058 11.6005 112.947 11.7995 113.74 12.216C114.533 12.6324 115.201 13.2515 115.677 14.01H115.766V5.78149H119.95V28.0824H115.88V26.0036H115.817C115.32 26.8128 114.616 27.4744 113.778 27.9202C112.94 28.366 111.998 28.5799 111.049 28.5393C107.081 28.5266 104.33 25.2557 104.33 20.0829ZM115.867 20.1832C115.867 17.1278 114.866 15.1119 112.152 15.1119C109.82 15.1119 108.641 17.1658 108.641 20.1832C108.641 23.2007 109.845 25.0775 112.026 25.0775C114.549 24.9761 115.867 23.1119 115.867 20.1832Z" fill="#0B1728"/>
</g>
<defs>
<clipPath id="clip0_2_489">
<rect width="120" height="34.3074" fill="white"/>
</clipPath>
</defs>
</svg>
