<svg width="24" height="24" viewBox="0 0 24 24" fill="none" xmlns="http://www.w3.org/2000/svg">
<path d="M23.3839 21.7729L16.8549 15.2439C18.2801 13.3705 18.9404 11.0257 18.7024 8.684C18.4643 6.34225 17.3457 4.17834 15.5728 2.63005C13.7998 1.08176 11.505 0.264698 9.15252 0.344164C6.80004 0.423631 4.56557 1.39369 2.90117 3.05809C1.23677 4.72249 0.266709 6.95696 0.187243 9.30944C0.107777 11.6619 0.924839 13.9568 2.47313 15.7297C4.02141 17.5026 6.18533 18.6212 8.52708 18.8593C10.8688 19.0973 13.2136 18.437 15.0869 17.0119L21.6159 23.5409C21.8524 23.7715 22.1696 23.9006 22.4999 23.9006C22.8303 23.9006 23.1475 23.7715 23.3839 23.5409C23.6182 23.3063 23.7498 22.9884 23.7498 22.6569C23.7498 22.3254 23.6182 22.0074 23.3839 21.7729ZM2.74994 9.65386C2.74994 8.31884 3.14582 7.01379 3.88752 5.90376C4.62922 4.79373 5.68342 3.92857 6.91683 3.41767C8.15023 2.90678 9.50743 2.77311 10.8168 3.03356C12.1262 3.29401 13.3289 3.93689 14.2729 4.88089C15.2169 5.82489 15.8598 7.02763 16.1202 8.337C16.3807 9.64637 16.247 11.0036 15.7361 12.237C15.2252 13.4704 14.3601 14.5246 13.25 15.2663C12.14 16.008 10.835 16.4039 9.49994 16.4039C7.71038 16.4017 5.99472 15.6899 4.72931 14.4245C3.46389 13.1591 2.75206 11.4434 2.74994 9.65386Z" fill="black"/>
</svg>
