<svg width="7" height="5" viewBox="0 0 7 5" fill="none" xmlns="http://www.w3.org/2000/svg">
<path d="M0.954834 1.18983L3.09377 4.45762C3.13253 4.5168 3.1908 4.56636 3.26226 4.60094C3.33371 4.63553 3.41564 4.65381 3.49915 4.65381C3.58267 4.65381 3.66459 4.63553 3.73605 4.60094C3.8075 4.56636 3.86577 4.5168 3.90453 4.45762L6.0437 1.18983C6.08024 1.13403 6.09816 1.07162 6.09573 1.00865C6.0933 0.945678 6.0706 0.884274 6.02983 0.830376C5.98905 0.776477 5.93158 0.731907 5.86298 0.700975C5.79437 0.670044 5.71695 0.653798 5.6382 0.653809L1.36033 0.653808C1.28158 0.653798 1.20416 0.670044 1.13555 0.700975C1.06695 0.731906 1.00948 0.776476 0.968706 0.830375C0.927932 0.884274 0.905232 0.945678 0.902802 1.00865C0.900372 1.07162 0.918294 1.13403 0.954834 1.18983Z" fill="#242424"/>
</svg>
