<svg width="10" height="15" viewBox="0 0 10 15" fill="none" xmlns="http://www.w3.org/2000/svg">
<path d="M9.3539 7.49991C9.35415 7.70434 9.3108 7.90647 9.22673 8.09282C9.14267 8.27916 9.01982 8.44544 8.8664 8.58054L1.8964 14.7124C1.66543 14.9062 1.3678 15.002 1.06716 14.9792C0.766509 14.9564 0.486707 14.8169 0.28758 14.5905C0.0884517 14.3641 -0.0141967 14.0688 0.00158356 13.7677C0.0173638 13.4666 0.15032 13.1836 0.372023 12.9793L6.46702 7.61741C6.48375 7.60275 6.49716 7.58468 6.50634 7.56441C6.51553 7.54415 6.52028 7.52216 6.52028 7.49991C6.52028 7.47766 6.51553 7.45567 6.50634 7.43541C6.49716 7.41514 6.48375 7.39708 6.46702 7.38241L0.372023 2.02054C0.15032 1.8162 0.0173638 1.53322 0.00158356 1.23213C-0.0141967 0.931034 0.0884517 0.635714 0.28758 0.409318C0.486707 0.182921 0.766509 0.0434172 1.06716 0.0206362C1.3678 -0.00214487 1.66543 0.0936049 1.8964 0.287412L8.8639 6.41741C9.0177 6.55275 9.14094 6.71927 9.22543 6.90591C9.30991 7.09256 9.3537 7.29504 9.3539 7.49991Z" fill="white"/>
</svg>
