<svg width="431" height="277" viewBox="0 0 431 277" fill="none" xmlns="http://www.w3.org/2000/svg">
<path fill-rule="evenodd" clip-rule="evenodd" d="M337.26 357.334C295.629 383.236 258.685 419.411 211.652 426.604C160.128 434.484 108.682 424.324 70.5693 398.119C31.4137 371.196 5.12978 329.31 0.987589 281.756C-2.98452 236.154 26.1632 191.32 48.6611 146.601C71.4545 101.294 85.4526 46.4351 132.39 20.5667C178.997 -5.11927 229.626 20.5305 280.322 18.927C333.764 17.2368 397.385 -16.5804 437.088 10.9296C476.744 38.4077 463.44 99.2494 466.339 147.818C468.911 190.902 477.959 235.874 452.939 276.485C428.653 315.905 378.24 331.838 337.26 357.334Z" fill="white"/>
</svg>
