<svg width="164" height="274" viewBox="0 0 164 274" fill="none" xmlns="http://www.w3.org/2000/svg">
<path fill-rule="evenodd" clip-rule="evenodd" d="M-313.465 537.228C-352.588 509.509 -393.249 485.951 -424.247 449.371C-458.663 408.757 -497.785 366.545 -502.995 313.565C-508.266 259.952 -472.642 212.899 -452.407 162.972C-430.008 107.707 -433.522 24.2682 -377.483 3.88485C-316.715 -18.218 -263.579 70.8168 -198.916 70.7704C-138.468 70.727 -90.5217 -17.2202 -33.7866 3.63826C20.082 23.4429 4.21498 110.227 36.8403 157.446C71.4304 207.508 149.156 226.856 161.598 286.42C173.864 345.145 124.366 397.588 98.2875 451.616C71.3467 507.43 58.1753 576.133 5.77842 609.233C-46.6133 642.329 -115.826 638.693 -176.277 625.058C-230.162 612.904 -268.392 569.162 -313.465 537.228Z" fill="white"/>
</svg>
